<svg xmlns="http://www.w3.org/2000/svg" width="720" height="720"><path fill="#fff" d="M0 0h720v720H0z" paint-order="markers fill stroke"/><path fill="none" stroke="#000" stroke-linecap="round" stroke-width="28.8" d="m345.6 163.5-.5 1q-.5 1-5 7.5t-11.5 17.5q-7 11-16.5 24.5t-19.5 26q-10 12.5-20.5 24t-20.5 22q-10 10.5-23.5 23.5l-13.5 13"/><path fill="none" stroke="#000" stroke-linecap="round" stroke-width="28.8" d="m323.6 167.5 4 7q4 7 13 20.5t22.5 30q13.5 16.5 28.5 34t30.5 32.5q15.5 15 24 20.5l8.5 5.5m-243 35 .5 1.5q.5 1.5 2.5 10t5.5 25.5q3.5 17 9.5 39t14 47.5q8 25.5 19 51t16 36.5l5 11m179-256-1 2-6 13q-5 11-12.5 31t-15.5 46q-8 26-13.5 53l-11 53.5-8 39-2.5 12.5"/><path fill="none" stroke="#0ff" stroke-linecap="round" stroke-width="28.8" d="m106.6 636.5 1.5-1q1.5-1 8-6.5t16-12q9.5-6.5 20-11.5t23.5-6.5q13-1.5 27.5 0t28 5.5q13.5 4 24 7.5t16.5 4.5q6 1 10.5-2.5t7.5-11q3-7.5 4.5-15l2.5-12.5q1-5 2.5-7.5t6.5-4.5q5-2 14.5-2.5t22 .5q12.5 1 25.5 3t25.5 4.5l25 5q12.5 2.5 23.5 4.5t21.5 3q10.5 1 20.5 1t19-.5l18-1q9-.5 17.5-.5h16.5q8 0 16-1.5t16-5.5q8-4 12.5-7.5l4.5-3.5m-483 127 .5-1q.5-1 4.5-5.5t10-10.5q6-6 13-11.5t15-9.5q8-4 17.5-5.5t20 .5q10.5 2 21.5 5.5t20 9q9 5.5 16 10l11 7 5 3q1 .5 1.5 0t2-4.5l3-7.5q1.5-3.5 3.5-6.5l3.5-5.5q1.5-2.5 4.5-4t7-5q4-3.5 9.5-7l11-7q5.5-3.5 10.5-5t12-.5q7 1 14 3.5l12.5 4.5q5.5 2 10.5 2t8-1l5.5-2q2.5-1 6-1t9 1l13 2.5q7.5 1.5 14 2t12-.5l10-2q4.5-1 10.5-1.5t13 1q7 1.5 14.5 4t14 3.5q6.5 1 10 0t6-2.5q2.5-1.5 5.5-2.5t8.5-1.5q5.5-.5 15 1t19 2.5q9.5 1 15.5 1t9.5-1l5-1.5 1.5-.5"/><path fill="none" stroke="#000" stroke-linecap="round" stroke-width="28.8" d="m339.6 336.5.5-3.5q.5-3.5 1-10.5l1-16q.5-9 .5-20V265q0-10.5-1-20.5t-2.5-21.5q-1.5-11.5-2.5-17l-1-5.5"/><path fill="none" stroke="#000" stroke-linecap="round" stroke-width="28.8" d="m268.6 226.5-.5-1.5-2-6.5q-1.5-5-2-11.5l-1-13.5q-.5-7-.5-13V126q0-.5.5-1t1-1.5q.5-1 2.5-2l6-3q4-2 10.5-3.5l13.5-3q7-1.5 15-2.5t15-1.5q7-.5 13-.5h50.5q.5 0 1.5 3.5t2 12q1 8.5 1.5 21l1 26q.5 13.5 1.5 25t1.5 19.5q.5 8 1.5 13l1 5"/><path fill="none" stroke="red" stroke-linecap="round" stroke-width="40" d="m401.2 145 2 .8q2 .8 5.4 2.9 3.3 2 6.5 4.5 3.3 2.4 6.6 5.7 3.3 3.3 5.3 6.6t3.7 7q1.7 3.7 2.9 7 1.2 3.2 2 7 .9 3.6.9 7.3 0 3.7-.8 8.2-.9 4.5-2.1 9.4l-2.5 10.3-2.4 10.3-2.5 10.6q-1.2 5.8-2 10.7l-.9 5"/><path fill="none" stroke="red" stroke-linecap="round" stroke-width="40" d="m370 125.3 2-.4 6.6-1.3q4.5-.8 11.1-1.6t14.4-.8h15.6q7.8 0 15.5 1.2 7.8 1.2 14 3.3 6.2 2 11.9 4.5t10.3 5q4.5 2.4 8.6 4.9 4 2.4 7.8 5.3 3.7 2.9 7.4 6.1 3.6 3.3 7 7 3.2 3.7 5.7 7.8 2.4 4.1 4.5 9 2 5 3.3 9.9 1.2 5 1.6 9.4.4 4.5 0 9.9-.4 5.3-1.2 10.6-.8 5.4-2 10.3l-2.5 9.4q-1.3 4.6-3.3 8.7-2 4-4.5 7.3t-6.2 6.6q-3.7 3.3-8.6 7-5 3.7-11 7-6.2 3.2-14.9 6.5-8.6 3.3-18.4 5.8-9.9 2.4-21 4-11 1.7-23.3 3.3-12.3 1.7-23.4 3l-11.1 1.2"/><path fill="none" stroke="#000" stroke-linecap="round" stroke-width="1.3" d="m454.6 140.1-.4-.1-2-1q-1.7-.7-4.7-1-3 0-6.5.3t-6.5 1q-3 .8-5.1 2.6-2.3 1.7-4 4-1.7 2.4-2.7 5-1 2.5-1 5.2 0 2.6 1.2 5.5 1 2.8 3.5 5.3 2.3 2.5 5.5 4.6 3.1 2 6.3 2.8 3.1.8 6.4.5 3.3-.3 6-2.4 2.7-2 4.7-5.5 2.1-3.4 3-7.9 1-4.4.8-8.6-.1-4.3-1-7.4-1-3.2-2.8-4.7-1.7-1.6-5-1.6t-7.6 1.9q-4.2 1.9-8.3 4.5l-4.1 2.7m67.7 1-1.4-.4q-1.4-.3-4.4-.1-3 .1-6.4 1-3.5 1-6.5 2.6t-5.2 4.1q-2.2 2.5-3.2 5.2-.9 2.7-.9 5.7t.8 5.5q.8 2.5 2.2 4.6 1.4 2 3.5 3.1 2 1.1 4.7 1.6t5.8 0q3.2-.5 5.9-1.4 2.6-1 4.5-2.2 2-1.3 3-4 1.1-2.7.6-6.7-.4-4.1-2.2-8.2-1.7-4.1-4.4-7.1t-5.6-4.6q-3-1.6-5-1.6H482"/><path fill="none" stroke="#000" stroke-linecap="round" stroke-width="16.1" d="m447.4 142-.3 1.6-.7 2.5-.8 2.2-1.2 2.4q-.7 1.2-1.6 2.2l-1.7 1.9-1.3 1.4q-.5.5-.9.6l-.7.4-.8.3-1.4.7q-.8.5-1.7.5-.8 0-1.5.2l-1 .2h-1.1l-.6-.2-.5-.2-.4-.2-.3-.3-.4-.3q-.1-.2-.3-.2l-.7-.2q-.5-.1-.7-.3l-.3-.4-.5-.1q-.4 0-.4-.2v-.3l-.1-.5q-.2-.4 0-1.2.1-.9.6-1.7l1.2-2q.7-1 2-2l2.5-2.2 2.7-2.4 2.5-2.2 2-1.5 1.1-.9q.5-.3.5-.5v-.1m32 20.7.5-.1 1.2-.7 1.2-1q.5-.5 1.4-1l1.9-1.2 2-1.4 1.7-1 1.2-.7.8-.5.7-.2h1l.9.2q.5.1.7.5l.5.7q.3.3.3.8l-.1 1.4-.7 1.9-1.2 2.2q-.7 1.2-1.5 2l-1.6 1.5-1.2 1-1 .7-1 .6-1.2.3-1.2.2h-1q-.2 0-.2-.2v-1q0-.9.4-1.9.3-1 .8-1.7l.5-.7"/><path fill="none" stroke="#fff" stroke-linecap="round" stroke-width="7.3" d="M437.9 168.8h.2l.8-.4 1.3-.5 1.6-.6 1.7-.8 1.7-1.1 1.7-1.3 1.4-1.3 1-1.3 1-1.2.8-1 .9-1.1q.5-.6.7-1.2l.4-1 .3-.9.2-.5.3-.9.3-.6"/><path fill="none" stroke="#fff" stroke-linecap="round" stroke-width="7.3" d="m449.2 154.8.3-.2.9-.6 1-.8.8-.8.8-.8.7-1 .6-1 .3-1 .3-1 .1-.6.2-.5v-.5l.1-.6.1-.4v-.3 8.8l-.2 1.8-.3 1.8-.3 1.7-.3 1.5-.4 1.2-.1 1-.2.9-.4.7-.3.7-.5.8-.5.7-.5.7-.6.6-.5.5-.7.5-.8.4-.8.3-.7.2h-2.9l-.7-.2-.7-.1-.7-.2-.7-.3-.7-.2-.9-.3-.8-.4-.7-.3q-.3 0-.5-.3-.3-.3-.5-.3l-.4-.2-.2-.1-.3-.3-.4-.2h0"/><path fill="none" stroke="#fff" stroke-linecap="round" stroke-width="7.3" d="m433.4 165 .1.2.7.5 1.4.8 1.7.8 1.5.7 1.6.6 1.4.3 1.2.1 1.2.2 1.1.1h1.2l1-.1 1-.2.9-.5.8-.7.7-.9.7-.9.8-1.2.7-1.5.5-1.6.4-1.6.3-1.5.3-1.5.1-1.3q0-.7.2-1.3v-2.9l-.1-1.5v-.7M444 170q0 0 0 0l-.7.1-1 .2-1 .1-1.3.1h-2.4l-.8-.2-.6-.2-.4-.1-.4-.3-.3-.2q-.2 0-.4-.3l-.5-.5-.4-.5-.5-.6-.4-.3-.2-.2-.2-.2-.4-.4-.3-.3"/><path fill="none" stroke="#fff" stroke-linecap="round" stroke-width="10.4" d="m478.4 174.8.4-.1 1.6-.4 2.4-.4 2.4-.3 2.1-.4 1.9-.3q.9-.1 1.9-.6l1.8-.8q1-.5 1.6-1l1.2-1 .9-1 .6-1.3q.4-.8.5-1.8v-2l-.3-1.9q0-.8-.2-1.4V159l-.2-.1-.2.4-.3 1.3-.5 1.7-.5 2.1-.7 2.4-.6 2.3-.5 1.8-.4 1.1-.3.6q0 .2-.3.5l-.5.5q-.4 0-.7.3l-.8.3-1 .2-1 .1h-4.4l-1.6.2h-4"/><path fill="none" stroke="#000" stroke-linecap="round" stroke-width="1.1" d="m427 137.3.4-.2 1-.6 1.7-.6 2-.7 2.1-.6q1-.4 2.1-.6l2-.3 2-.2 1.6-.2h1.7l1.7.2q1 0 1.8.3l1.8.4 1.7.6 1.6.6 1.2.7 1 .8 1.2 1 1 1 .7 1.3.6 1.2.4 1.4q.3.9.4 2.1l.2 2.5q0 1.4.2 2.4l.2 1.8.1 1.6v1.4l-.3 1.5-.3 1.6-.4 1.4q0 .7-.3 1.2l-.4 1.2-.5 1.4-.5 1.3-.5 1.2q0 .6-.3.9l-.5.6-.6.8-.5.9-.8.8-.8.6q-.3.4-.8.7l-.7.7-.8.5-.9.6-1 .6-1 .6-1 .3-1.4.2-1.3.2-1.3.1H440l-1.4-.5-1.5-.7-1.7-.7-1.6-1-1.8-1-1.8-1-1.5-1.2-1.3-1.2-1.1-1.1-1.1-1.1-1-1.1q-.2-.6-.7-1.1l-.6-1-.5-1-.3-1-.2-1-.3-1.3-.2-1.6-.2-1.7-.1-2v-2.3q0-1.4.3-3.1l.7-3.4.6-3.2.6-2.5.2-.8m44.1 30.1v.2l.1.6.5 1.6q.5 1 1 1.6l.8 1.2.9 1.2.8 1.1.5.8.6.6.7.5 1.1.7 1.4.6q.6.4 1.4.6l1.5.3 1.6.2 1.4.2q.7 0 1.3-.2l1.4-.2h1.4q.8 0 1.5-.2l1.6-.2 1.5-.2 1.6-.4 1.5-.4q.8-.2 1.5-.6l1.5-.5 1-.5 1-.5.8-.8 1-1 1-1.4.6-1.4.5-1.5.5-1.5.2-1.8v-2q.2-1 0-2.2l-.2-2.3-.7-2.4-1-2.4q-.5-1.2-1.3-2.3l-1.9-2.5q-1-1.3-2.6-2.7-1.6-1.4-3.8-3-2.2-1.5-5.5-2.8l-3.3-1.4"/><path fill="none" stroke="#014" stroke-linecap="round" stroke-width="6.3" d="M446.3 103h.4l1.4.7 2.5 1.1q1.4.6 3.2 1.1 1.7.5 3.5 1.3l3.8 1.7 4.2 2 4.5 1.8 4.6 2 4.7 2.3 4.4 2.2 4.2 2.4 4 2.4 3.6 2.2q1.7 1 3.3 2.4l3.2 2.3q1.5 1.1 2.8 2.4l2.4 2.2 2 2 1.8 1.8 1.3 1.8.7 1.4.5.8.2.1M444.1 101v-1l-.1-2.3-.4-2.9-.3-3-.3-3q-.1-1.4-.5-2.5l-.4-2-.5-1.7-.5-1-.3-.9-.6-1.7-1.5-3.6-1.5-4.3-.7-1.8m77.3 71 .3-.3q.3-.4 1.6-1t2.7-1.6l2.7-1.9q1.2-1 2.8-1.9l3.4-2 3.4-2.2 3.4-2.1q1.5-1 2.8-1.6l2.4-1.1q1-.5 2.2-.8l2-.6 2-.7 1.9-.4 2.2-.5 2-.5.8-.1"/><path fill="none" stroke="#014" stroke-linecap="round" stroke-width="6.3" d="m545.8 117.2-.3-.7q-.4-.6-.8-1.9-.5-1.2-1.5-2.8l-2.6-3.8q-1.8-2.2-4.2-4.6-2.3-2.4-5.3-5-3-2.8-5.7-4.8l-5.4-4.1q-2.7-2.1-5.4-3.8-2.7-1.8-5.7-3.4l-6.2-3.1q-3.2-1.6-6.5-2.9l-6.6-2.4-6.4-2q-3-1-6-1.6l-5.7-1.1-5.7-1-5.5-.8q-2.6-.3-5-.3h-4.2q-2 0-3.3.3l-3 .7q-1.6.3-2.9.8-1.3.4-2.7 1.2-1.4.8-2.8 1.3-1.5.5-2.7 1.1l-1.3.6"/><path fill="none" stroke="#014" stroke-linecap="round" stroke-width="6.3" d="M475.2 71h.1l.8-.2 1.4-.5 2-.6 2.6-.7 2.4-.6 2-.6q1-.4 1.8-.5l1.6-.3 1.6-.4 1.7-.3 1.8-.3 1.4-.1 1.2-.2q.7-.2 1.6 0l1.8.2 1.7.1 1.8.3 1.5.5 1.8.6q1 .4 1.7.5.8.2 1.4.6l1.2.8 1 .7 1.2.6 1 .8q.7.5 1 1l.8.9 1 1.1 1 1.3.9 1.6q.4 1 1 1.9l1.3 2.2 1.5 2.7q.8 1.4 1.2 2.7l1 2.5.8 2.4.6 2 .6 2 .4 1.2m12 31.1.3 1 1.4 5.3q1.1 4 3 9.5l4 10.4 3.5 8.6 2 5q.7 1.6-.1.7-.8-1-2.5-2.6l-3-2.8q-1.3-1.3-1.8-1.6-.5-.3.2 1.7.6 2.1 2.5 6.5l4.3 9.8 4.4 10.3 3.3 8.7q1.3 3.8 2 6.5.6 2.7.6 5 0 2.2-.4 4.7l-.3 2.5M543 126.3l.2 1.2 1.6 3.8 2.9 5.7 3 5.7 2.4 4.2 1.2 2 .3.7q0 .2 1.5 1.8 1.4 1.5 3.6 4.6 2.2 3 4.4 6.6l2.3 3.6"/><path fill="none" stroke="#014" stroke-linecap="round" stroke-width="2.2" d="M496.6 111.8h-.7l-.9.2h-2l-1.1-.2q-.6 0-1-.2l-1-.3-1-.2-.8-.3-.8-.4-.8-.5q-.4-.2-.7-.6l-.6-.6-.5-.5-.4-.6-.4-.8-.5-1-.4-1-.4-1.3-.3-1.1-.3-1.1-.3-1-.2-.9V99l-.1-.2-.1-.1v-.1m-.2-.2v.1l-.5.3-.7.6-.8.8-.7.6-.5.5-.3.2q0 0 0 0v.1l-.1.1v.1h-.1v.1h-.1v.1m4.5-5 .6.3 1.1.4 1 .5.8.4.4.2.2.1m47.3 85.4q0 0 0 0t0 0v0"/><path fill="none" stroke="#014" stroke-linecap="round" stroke-width="2.2" d="M493.2 106.7q0 0 0 0l.3.5.5.8.5.7.5.6q.2.4.5.6l.4.5.4.4.1.2q0 0 0 0v.3l-.7.6-.9.8-.8.6-.5.4-.2.2q0 0 0 0h-.2v.2h-.1l-.1.1q0 0 0 0l-.1.1h-.1q0 0 0 0l-.1.1h0m6.4-19.2-.2.2q-.2 0-.6.4l-1 .8-1 1-1.1 1.1-1.2 1.2-1 1.2-1 1-.8 1.1-1 1-.8 1-.8 1-.7.9-.4.7-.2.6-.2.4v.2"/><path fill="none" stroke="#014" stroke-linecap="round" stroke-width="2.2" d="m498.2 101.2-.5-.4-1.3-1-1.7-1.5-1.6-1.4-1.1-1.2-.7-.7-.3-.2-.1-.1v-.1m12.5-2.9-.3-.4-.6-1q-.4-.6-1-1-.6-.6-1.2-.7-.6-.2-1.2 0-.5 0-1 .3-.4.3-.6.8l-.4 1v1.4q.2.7.7 1.5.5.8 1.2 1.5l1.3 1.3q.7.5 1.2.6.4.2.8.1.4 0 .8-.4t.5-1.2q.2-.9-.1-2.6l-.4-1.7"/><path fill="none" d="m220.2 57.5 4-4.8 10.5-12.9q6.4-8 13.7-17.7 7.2-9.7 14.4-18.1 7.3-8.5 13-16.1 5.6-7.7 8.8-12.9l4.8-8q1.6-2.9 2.4-4 .8-1.3.8-1.7 0-.4-.4-.4t-5.6 4Q281.4-31 272-23q-9.3 8-19.7 19.3-10.5 11.3-21 22.2L213 37.8l-13.2 14L192 60l-3.2 3.2q-.8.9-.4 0 .4-.8 5.6-6.4 5.3-5.6 13.3-14.9L225 21.7q9.7-10.9 19.7-22.5l20.6-23.8q10.4-12 19.7-23.3l16-19.4 10.1-11.6q3.3-3.6 4-5.3.9-1.6-3.6 1.2-4.4 2.9-14.8 10.5-10.5 7.7-22.2 18.1-11.7 10.5-23.7 21.8-12.1 11.2-24.2 22-12 11-22.1 20.6-10 9.7-17.3 17.3-7.3 7.7-12 13-5 5.1-7.3 8-2.5 2.8-2.5 3.2 0 .4.4.4.5 0 8.1-4.4 7.6-4.5 20.5-13.7 12.9-9.3 27.4-20.6Q236.3 2 250.4-10l26.5-22.5q12.5-10.5 21.8-20.2 9.2-9.6 14.5-16.9 5.2-7.2 7.2-10.8l2.4-4.5q.4-.8-.4-.8t-8 2.8q-7.3 2.9-18.6 9.3-11.2 6.4-23.7 16.1-12.5 9.7-25.4 21.3-12.8 11.7-25.3 23.4t-22.5 22q-10.1 10.5-16.1 17-6 6.4-8.9 9.2-2.8 2.8-2.8 3.6 0 .8 6.4-2.4 6.5-3.2 17.7-11.3 11.3-8 24.6-18.9l27-22.1q13.6-11.3 25.7-21.8 12-10.4 22.5-20.5l19-18.1q8.4-8 13.2-13.3 4.9-5.2 6.9-7.6l2.4-2.9-3.2 3.7q-3.6 4-11.3 13.2-7.6 9.3-16.9 21.4l-19 24.5-19.6 25.4-19 24.5-16 21q-7.3 9.2-12.1 16L212.5 60q-2 3.2-2.4 3.6-.4.5 0 .5t6-3.7q5.7-3.6 14.1-10.4l18.2-15q9.6-8 19.3-17.2 9.6-9.3 19.3-20.2 9.7-10.8 18.5-21.7 8.9-10.9 15.3-19.3 6.4-8.5 10.5-14.5l6-8.9 2.4-3.2q.4-.4-.4 0t-5.6 4.9q-4.9 4.4-12.1 12.4-7.2 8-15.7 18.1-8.4 10.1-17.3 21.8-8.9 11.7-16.9 23.3-8 11.7-15.3 21.4-7.2 9.6-12 17.3l-7.7 12-3.6 6q-.8 1.7 3.2-2.3l9.6-9.7q5.7-5.6 13-13.3Q266 34.2 274 25t15.3-20.1Q296.6-6 303-16.4L314.8-36q5.2-8.8 8.4-15.3l5.2-10.4 2.9-5.7q.8-1.6.8-2 0-.4-.4 0t-4.9 3.3q-4.4 2.8-10.8 9.6-6.5 6.9-14.5 16.1l-17 19.7Q275.8-10 267.4.8q-8.5 10.8-15.3 20.5L240 38.2l-8.4 11.7q-3.3 4.4-4.9 6-1.6 1.6.8 0 2.4-1.6 8-6.8 5.7-5.3 13.8-11.3 8-6 16.9-14.5l18.5-17.7 17.7-17.3q8-8 13.7-14.9 5.6-6.8 8.4-10.5 2.8-3.6 4-4.8 1.3-1.2-2.8 1.6-4 2.8-10.8 9.3-6.9 6.4-14.5 14.5L284.6 0q-8 8.4-16.1 16.5-8 8-14.1 14.4-6 6.5-9.7 10.1l-5.2 5.2q-1.6 1.7-1.6 1.3 0-.5 3.6-4.9t9.7-11.2q6-6.9 14-15.3 8.1-8.5 15.8-17.3L296.2-19q7.7-8.8 14.1-17.3l12.5-16L333.7-66l8-10.1q3.2-4 4.9-5.6 1.6-1.7 2.4-2 .8-.5 2 0 1.2.3 4 3.2 2.8 2.8 6 7.6 3.3 4.8 6.5 10.5l6 10.8L378-43q1.6 3.2 2.4 4.4.8 1.2.4-.8l-1.2-5.2-1.6-6.5q-.9-3.2-2-6-1.3-2.8-3.3-6-2-3.2-4.4-6.5-2.4-3.2-6-6.4-3.7-3.2-6.9-4.8l-6-2.9-4.5-2q-1.6-.8-2.8-1.2l-1.6-.4q-.4 0-.8-.4t-.4.4q0 .8 4 4.4l11 10.5q6.7 6.9 15.6 14.1L388-43.5l18.1 14.9q8.9 7.2 16.5 14L436.3-2q6 5.7 9.3 9.3l4 4.4q.8.8-4-1.6-4.9-2.4-14.5-8.8-9.7-6.5-21-13.3-11.2-6.9-22-13.3l-20.6-12-17.3-10.1q-7.7-4.5-12.9-6.5t-6.8-2.4l-2-.4q-.5 0 1.6 3.6 2 3.7 10.8 13 8.9 9.2 20.1 19.6L382.8-.4q10.4 9.6 16.9 15.3l8.8 7.6q2.5 2-2.8-2L387.2 6.4q-13.3-10-29.8-23Q341-29.3 324-41.8t-31-21.7q-14-9.3-23-15-8.8-5.6-12.4-7.2-3.6-1.6-4-1.6-.4 0 .4.8t9.2 7.3q8.5 6.4 21.4 16.5L311-42.3q13.7 10.5 26.6 19.3 12.9 8.9 22.5 15.3l15 10q5.2 3.7 6.8 4.5 1.6.8-2.4-3.6t-15-12.5q-10.8-8-24-16.1-13.4-8-25.8-14.9-12.5-6.8-21.4-10.5-8.8-3.6-12.8-5.6l-4.9-2.4q-.8-.4 1.6 2 2.4 2.4 14.1 11.7Q303.1-36 318-25.4q14.9 10.5 29 19Q361 2 371.5 8t15.3 8.5q4.8 2.4 5.2 2.4.4 0-3.2-4T373.5 1.6Q362-7.7 347.8-18.2l-26.2-19.3-19.3-14q-7.3-5.3-10-7.7-2.9-2.4 2.3 0l19.8 9.3q14.4 6.8 30.5 15.2 16.1 8.5 30.6 16.5 14.5 8.1 24.2 13l13.7 6.8 4.8 2.4q.8.4-2.8-2-3.6-2.4-16.1-9.7-12.5-7.2-27.8-15.7-15.3-8.4-29.4-15.7-14-7.2-24.1-11.7-10-4.4-15-6.4-4.7-2-5.5-2-.8 0 .4 1.2 1.2 1.2 10.4 7.6 9.3 6.5 21.4 14.1l22.5 14.5q10.5 6.9 16.9 10.9 6.4 4 8.4 5.6 2 1.6-7.6-3.2l-25-12.5q-15.2-7.6-31.3-15.3-16.1-7.6-30.2-14l-23-10.5q-8.8-4-12.8-5.6-4-1.7-4.5-1.7-.4 0 2.4 1.2 2.9 1.3 15 7.3 12 6 28.5 14.9 16.5 8.8 31.8 17.3 15.3 8.4 25 14Q355.4-7.6 359-6q3.7 1.6-.8-1.6-4.4-3.2-14.5-9.2-10-6-22.9-13.3-12.9-7.3-25.4-13.7-12.4-6.5-24.1-11.3-11.7-4.8-24.2-7.6l-12.4-2.8"/><path fill="none" d="m356.9 13.5-3.5.4-11.3 1.6-17.2 2.4q-9.5 1.3-18.7 2.9-9.1 1.6-16.8 3.2-7.6 1.6-12.8 3-5.2 1.6-7.4 2.6-2.1 1-1.1 1.2 1 .1 6.8-.2 5.8-.3 14.9-1.2l19.1-1.8q10.1-1 19.4-1.6l16.9-1q7.6-.3 12.8-.7 5.3-.4 7.4-.8 2.1-.5.2-.9-2-.4-10.7-.8-8.9-.5-21.4-.4l-25.2.4q-12.7.2-22.7.6-10 .4-15.6.8l-5.3.5 9.4-1.3q9.2-1.3 23.4-2.8 14.3-1.5 29.2-2.8l27-2.4q12.3-1 19.8-1.8 7.4-.8 11-1.7 3.6-.8 3-2-.8-1.2-8.5-3.2t-20.8-3.3Q345 1 331.5.7q-13.6-.4-23.9 0-10.3.4-15.7 1-5.4.7-5.5 1-.1.3 5.7.5 5.9.3 15.4.5L327 4l18 .5 13.3.5q5 0 6.3-.3 1.3-.3-3.4-1.7-4.6-1.3-15.8-2.7Q334-1 321-1.6 308-2 296.7-2t-18.1.6q-6.8.5-8.3.8-1.5.3 5.2.1L294-.9q11.7-.1 24 .2 12.4.3 23 1l17.3 1.3q6.8.6 9.1.4 2.3-.2 0-1.6-2.3-1.4-11.7-4-9.4-2.5-22.2-4.9-12.9-2.3-25.1-4.1l-21-3q-8.7-1.2-12.9-1.2-4.1 0-2.8.4l8.7 1.7q7.4 1.4 18.6 3 11.2 1.8 23.2 4.1T345-2.8q10.6 2.4 18 4.6l10.9 3q3.4.8 2.5.4-.8-.5-8.8-2.5t-20.2-4.6q-12.2-2.5-24.8-4.6-12.5-2.2-22.5-3.3-10-1.2-15.9-1.5l-6.9-.3q-1 0 3.4.5L294-9.5q8.8 1 19.2 2.9 10.3 1.8 20.6 4.1t19.6 5q9.2 2.7 16 5.1 6.6 2.5 10 4l3.8 1.6q.3.3-5.8-.4L360.1 11q-11.3-1.3-23-2.2-11.7-1-20.5-1-8.9-.2-13.2.4-4.4.7-3.7 1.3.6.7 6.8 2.2 6.1 1.6 15 3.5l18 3.6 16.6 3.5Q363.7 24 369 25q5.3 1.1 7.6 1.4 2.2.3 2.2 0t-5-2q-5-1.7-14.9-3.4t-20.8-2.6q-11-.8-19.6-1-8.6-.2-13.3 0-4.7.4-4.5.7.2.3 6 1.3 6 1 14.8 2.2 8.8 1.3 18.1 3l17.3 3.2 13.3 2.7 8 1.5q2.5.3 2.7 0 .2-.4-3-2.2-3.4-1.8-11.8-4t-19.9-4.2q-11.4-1.9-23.4-3-11.9-1-22.4-1.4-10.5-.5-18.2-.3-7.6 0-12 .5-4.4.4-5.8 1-1.3.5-1.2.7 0 .2 1.2.8 1.2.7 2.8 1.1l2.8.6 1.4.3-.7.2q-.8.2-3 .3-2.3 0-4.4.4l-3.5.4q-1.4.1-2 .4l-.8.2h-.2l-.2.4-.3.5q-.3.3-.5 1.4-.2 1 0 3l.1 4.5.1 5.8v7q-.2 3.5-.2 7.3v7l.1 5.8.2 4 .3 2.2v.8q0 .3.5 0 .4-.2 1.5-1.4 1-1.3 2.4-3.8 1.4-2.4 2.9-5.8l3-7.2q1.7-3.9 3-7.6l2.8-7.1 2.6-6.2 2-4.9 1.3-3.4.6-1.7.1-.3-.7 1.3q-.7 1.1-1.7 3.3l-2.4 5-2.7 6.3-2.9 7.3-2.7 7.3-2.3 7.1q-1 3.6-1.5 6.6l-.6 5.2-.2 3.3v1.4q0 .2.5-.3l1.7-2q1.2-1.5 2.4-3.8l2.8-5.5q1.5-3 3-6.5l3-6.8L278 47l2.7-5.5q1.3-2.4 2.6-4.1l2.1-2.9 1.3-1.7.5-.5v.3l-.5 1.7-1.3 3.7q-.9 2.4-1.7 5.3l-1.8 6.6-2 7.2-1.6 6.4-1.4 5.4-1 3.7-.5 1.8q-.2.4.3-.2.6-.7 1.6-2.4T280 68q1.5-2.1 3-4.7l3-5.2 3.1-5 2.8-5 2.4-5 2.4-4.9 2.2-4.5 2-4.3 1.7-3.6 1.4-3.1 1.2-2.8 1-2.2.8-1.6.6-1.2.4-.7q.3-.2.4 0l.4.8q.3.7 1.2 1.9.8 1.1 2.3 2.7 1.5 1.6 3.7 3.6l5.2 4.6q3 2.6 6.8 5.4l8.2 6.3 9 7 8.8 6.7 7.6 5.8 4.8 3.5 1.9 1.3q.2.2-.2 0l-3-2.2q-2.6-1.9-7.4-4.9-4.8-3-11.6-6.7t-14.4-7.3q-7.7-3.6-14.8-6.7L304 30.7l-9.3-3.4q-3.9-1.3-5.5-2l-1.8-.6q-.2 0 0 .1l1.8 1q1.8.8 5.6 2.1 3.7 1.3 8.7 2.6l10.7 2.8 11.7 3.3 11.5 3.2q5.6 1.5 10.1 3.1 4.6 1.6 7.7 2.9l4.5 1.8 1.4.5-1-.3-5.3-1.3q-4.4-1-11-1.8l-14.1-1.6-14.6-1.4-12.6-1-8.5-.5-3.3-.2h2.9q3.2-.2 11.4-.3l18.3.1q10 .2 19.5.6 9.5.3 16.7.8 7.3.5 11.5 1l5.6.6q1.2.2.5 0-.8-.2-6.5-.4l-16-.3h-22.2q-12 0-23 .6-11 .5-18.9 1.4-8 .8-12.2 1.8-4.3 1-5 1.5-.6.5 3 1.7 3.7 1.2 11.3 2.2l17.7 2.4q10 1.2 20.1 2.7l19 2.9 14.8 2.4q6 1.1 9 1.4l3.4.3-3.4-.7-11.5-2.1q-7.8-1.4-17-2.7-9.3-1.3-18-2.2L306.2 54l-11.1-1.2-5.7-.4q-1.2 0-.2-.1l6.6-.3q5.6-.3 13.4-.1 7.9 0 16.2.3 8.3.2 15.6.7l12.9 1 8.8.5h4q.6-.1-.9-.7-1.5-.7-7.2-2.5-5.8-1.8-14.4-3.4-8.6-1.6-17.3-2.8l-16-1.9q-7.2-.7-12.1-1h-6.6l-1.7.3"/><path fill="none" stroke="#000" stroke-linecap="round" stroke-width="30.8" d="m296.9 91.4.2-.7.4-2.7.4-4 .1-5v-9.6l-.1-4-.4-3.7q-.2-1.9-.6-3.6l-.6-3q-.2-1-.2-2.2V51q0-.5-.2-.7-.2-.2-.2-1v-1.2q0-.3.2-.5l.8-.8q.6-.6 1.3-1 .8-.4 2.2-.7l3.2-.8q2-.4 4.3-.4l4.6-.2 4.6-.6q2.4-.4 4.7-.4 2.3 0 4.6-.3l4.6-.6q2.3-.2 4.5-.6l4-.6 3.9-.2h12.7q.4 0 .4.2l.4 1 .5 2 .4 2.8.4 3.5.4 3.6.2 3.9v7.4q0 2-.2 3.7l-.2 3.3v9.7q0 1 .2 1.8l.2 1.6v1.5l.2 1.6.2 1.3v1.4"/><path fill="none" stroke="#000" stroke-linecap="round" stroke-width="28.2" d="M273.6 60.6h-.4l-2.6.4q-2.2.4-6.2.8l-8.5.7-8.8.7-8.4.8q-4 .3-7 .3t-4.4.4q-1.5.4-2.2.4h-1.5M366.8 57l1.9-.8q1.8-.7 5.1-1 3.3-.4 7.4-1.2l8-1.4q4-.8 8.5-1.1l8.4-.8q4-.3 7.4-.3h5.9q2.5 0 4.7.3l2.2.4"/><path fill="none" stroke="#fff" stroke-linecap="round" stroke-width="34.2" d="M524 155.3v0"/><path fill="none" stroke="#000" stroke-linecap="round" stroke-width="5.1" d="M512 143q0 0 0 0l.7-.2 1.4-.8q.9-.4 1.7-1l1.8-.8 1.8-.6 1.6-.5 1.8-.4 1.9-.2 1.9-.2 1.8-.1h1.7l1.6.5 1.7.8 1.6.8 1.5 1q.8.6 1.4 1.3.7.6 1.2 1.4l1.2 1.5q.7.7 1 1.5l.7 1.4.5 1.4.3 1.6v1.7l-.2 1.7-.3 1.6q-.2.9-.6 1.7-.3.9-.9 1.9-.5 1-1.4 2.2l-1.7 2.1q-.8 1-1.7 1.8l-1.7 1.4-1.6 1.2-1.7 1-1.7.9-1.6.6q-.7.3-1.6.4l-1.6.2H523l-1.6-.2q-.8 0-1.6-.5l-1.6-.8-1.5-1-1.4-1-1.3-1-1.1-1.2-1.2-1.6q-.7-.8-1.2-1.8l-1-1.9-1-1.7-.6-1.8-.2-1.9v-1.8l.3-1.8.6-2 .8-1.6 1-1.6 1-1.4 1-1.2 1-1 1.2-.8q.5-.3 1.3-.5l.7-.1"/><path fill="none" stroke="#000" stroke-linecap="round" stroke-width="6.5" d="m531.8 184.6.5-.1 1.2-.2 1.6-.2 1.6-.2 1.6-.3 1.5-.3 1.2-.3 1-.3.9-.2.4-.2h.1v-.4l-.2-.8-.4-1.2-.5-1.5-.6-1.8-.6-1.8-.6-1.7-.5-1.6-.5-1.5-.5-1.5-.6-1.5-.5-1.2-.3-.6v-.3l-.2-.2q0 0 0 0v-.1"/><path fill="none" stroke="#fff" stroke-linecap="round" stroke-width="34.5" d="M407.2 260.1v0"/><path fill="none" stroke="#999" stroke-linecap="round" stroke-width="5" d="M410.9 242.2h-.8l-.9-.2h-1.3l-1.5.2-1.6.2-1.6.2-1.4.3-1.2.4-1.2.5-1.2.5-1 .6-.8.5-.7.5-.8.5-.7.6-.7.6-.6.6-.6.8-.5.8-.6.9-.6.8-.4 1-.5.9-.3 1-.3.9-.2.8-.1 1v2.1q0 .6.2 1l.3 1 .3 1 .3 1.1.4 1.2.3 1.1.4 1.1.4 1 .5 1 .7 1 .7 1 .8 1.2.8 1 1 .8 1.1.8 1.2.8 1.3.6 1.1.4 1.1.3 1.2.3 1.2.1 1.3.1h1.3l1.3-.1 1.3-.2 1.3-.2 1.3-.3 1.3-.3 1.2-.3 1-.5 1-.6.9-.5.8-.5.8-.7.7-.7.7-.7.6-.9.6-.8.5-.8.4-1 .4-.9.3-1 .2-1 .2-1 .2-1v-4.3q0-.6-.2-1.1l-.2-1-.4-1.2-.5-1.1-.6-1.1-.7-1-.9-1.1-1-1.2-1.2-1-1.2-1.1-1.3-1-1.3-1.1-1.2-1-1.4-.7-1.4-.7-1.6-.5-1.8-.2-2-.2-2-.2h-1.5l-.4-.1"/><path fill="none" stroke="#999" stroke-linecap="round" stroke-width="7.6" d="m422.2 192.2-.3.1q-.3.2-2 .6l-4 1.2q-2.4.7-4.7 1.6l-4.8 1.5-5 1.5-5.2 1.4q-2.6.8-5.3 1.2-2.8.4-5.2 1l-5 1.1-5 1q-2.3.5-4.5 1.2l-3.6 1.3-2.4.9-1.6.6-1 .4q-.4.1-.6.4-.1.3-.3.3l-.1.3.1 1 .7 1.9 1.5 2.4 1.9 2.8 2.4 3 3 3.3q1.6 1.8 3.4 3.3l3.3 3.2 3.3 3.2 3.2 3 2.4 2.6 1.8 2 1.5 1.8q.9.8 1.3 1.4l.6.7.2.2"/></svg>