<svg xmlns="http://www.w3.org/2000/svg" width="720" height="720"><path fill="#eaf0f4" d="M285.4 557.7c-24.1-54-29-66.6-42.1-111a787.3 787.3 0 0 1-18-70l-4.4-19.5c-1-4.5-2.6-12-3.4-16.5l-1.4-8.2 3-2.7 10-9.3a820.9 820.9 0 0 0 43.7-43.8c18.3-19.6 25.3-28 47.9-57.5 10.6-13.8 11-14.3 11.5-13.5 6 8.5 26.2 33.2 46.3 56.2 12.3 14.1 17 19 30.2 32.1a216.1 216.1 0 0 0 32.8 28.4l4.3 2.8-1 2.8c-11 28.5-23.9 67.9-36 109.5a463.3 463.3 0 0 0-15.3 62 2269.3 2269.3 0 0 1-11.4 56.3c-.4 2 .3 2-9.6.4-31.7-5-57-5.7-71.1-2a46 46 0 0 0-12.7 5.7l-1.7 1.3z"/><path fill="#eaf0f4" d="M274.2 208c-.2-24.6-.1-42.8.3-51.8l.1-3.7H285c11 .2 26-.2 37.7-.8 12.7-.7 53.3-1.3 56.2-.8l1 .2v24c0 13.3-1 29-.2 34.8l3.5 29.4c2.3 19.6-22.3-37.8-37.6-45.5-9.8-5-9.8-22.4-18-18.4-3.3 1.5-4.5 9-7.3 13.7-1.9 3.2-33.3 35.8-44.4 50-.4.6-1.4-6.6-1.6-31zm31.8-81.7c-.4-7.4-1-32-.7-32.3.1-.1 42.4-1 42.5-.9l.8 34.7v1.4l-10 .2a751 751 0 0 0-30 1.2h-2.4z"/><path fill="none" stroke="#000" stroke-linecap="round" stroke-width="28.8" d="M459.4 319.2A1521 1521 0 0 0 413.5 462c-5 17.7-7.3 35.8-11 53.5L392 567M207.1 326.3l4.4 26.2c.2 1 1.2 4.3 2.5 10 1.3 5.6 3.2 14.1 5.5 25.5a644 644 0 0 0 9.5 39c4 14.6 8.7 30.5 14 47.5 5.3 17 11.7 34 19 51 7.3 17 12.7 29.1 16 36.5l5 11m51.2-391.5c2.7 4.7-.2 3 5.8 12s13.5 19 22.5 30 18.5 22.3 28.5 34c10 11.6 20.2 22.5 30.5 32.5s18.3 16.8 24 20.5l8.5 5.5"/><path fill="none" stroke="#000" stroke-linecap="round" stroke-width="28.8" d="M334.5 181.9c-6.4 9-35.8 48.2-42.5 56.6a483.9 483.9 0 0 1-20.5 24c-7 7.6-13.8 15-20.5 22-6.7 7-14.4 15-23.5 23.5l-19.2 18M336 344l.5-3.5q.5-3.5 1-10.5l1-16q.5-9 .5-20v-21.5q0-10.5-1-20.5t-2.5-21.5q-1.5-11.5-2.5-17l-1-5.5"/><path fill="none" stroke="#000" stroke-linecap="round" stroke-width="28.8" d="M264.2 266.3c0-14.5-2.3-125.3 1.5-125.3 32.3 0 36.7.5 58.2-.7 21.8-1.2 59.3-.6 67.1-.6 3.5 0 1 83.9 1 112.8"/><path fill="none" stroke="#000" stroke-linecap="round" stroke-width="30.8" d="M296.5 131.4c0-6.7-1.9-49.8.3-49.8l61.5-1.1c.9 0 1.6 50.2 1.6 53.1"/><path fill="none" stroke="#000" stroke-linecap="round" stroke-width="28.2" d="M295.5 98.6h-75.8m144.3.2 68-.6"/><path fill="none" stroke="#0ff" stroke-linecap="round" stroke-width="28.8" d="m148 686 .5-1q.5-1 4.5-5.5t10-10.5q6-6 13-11.5t15-9.5q8-4 17.5-5.5t20 .5q10.5 2 21.5 5.5t20 9q9 5.5 16 10l11 7 5 3q1 .5 1.5 0t2-4.5l3-7.5q1.5-3.5 3.5-6.5l3.5-5.5q1.5-2.5 4.5-4t7-5q4-3.5 9.5-7l11-7q5.5-3.5 10.5-5t12-.5q7 1 14 3.5l12.5 4.5q5.5 2 10.5 2t8-1l5.5-2q2.5-1 6-1t9 1l13 2.5q7.5 1.5 14 2t12-.5l10-2q4.5-1 10.5-1.5t13 1q7 1.5 14.5 4t14 3.5q6.5 1 10 0t6-2.5q2.5-1.5 5.5-2.5t8.5-1.5q5.5-.5 15 1t19 2.5q9.5 1 15.5 1t9.5-1l5-1.5 1.5-.5m-526-1 1.5-1q1.5-1 8-6.5t16-12q9.5-6.5 20-11.5t23.5-6.5q13-1.5 27.5 0t28 5.5q13.5 4 24 7.5T271 615q6 1 10.5-2.5t7.5-11q3-7.5 4.5-15L296 574q1-5 2.5-7.5t6.5-4.5q5-2 14.5-2.5t22 .5q12.5 1 25.5 3t25.5 4.5l25 5Q430 575 441 577t21.5 3q10.5 1 20.5 1t19-.5l18-1q9-.5 17.5-.5H554q8 0 16-1.5t16-5.5q8-4 12.5-7.5l4.5-3.5"/><g fill="none" stroke="red" stroke-linecap="round" stroke-width="40"><path d="M418.5 131.7c2.6 54.6 29.8 110.3-2.4 153.8"/><path d="M389.6 123.2c20.3-5.7 9.3-3.5 29.5-3.5a99.8 99.8 0 0 1 41.4 9 121.3 121.3 0 0 1 18.9 9.8 146.6 146.6 0 0 1 22.2 18.5 52 52 0 0 1 10.2 16.8 69.3 69.3 0 0 1 5 19.3c.2 3 .2 6.3 0 9.9a141.5 141.5 0 0 1-5.8 30.3 46.7 46.7 0 0 1-14 22.6 85.5 85.5 0 0 1-19.7 14 162.7 162.7 0 0 1-33.2 12.3c-6.6 1.6-13.6 2.8-21 4-15.6 2.6-1.3.7-14.2 1.4"/></g><path fill="#fff" stroke="#000" stroke-linecap="round" stroke-width="1.1" d="M466.4 160.5c-2.6 2.8 2.3 23.4 12.5 24 18.6 1.4 22-5.9 24-11.6a20 20 0 0 0-3-17.5c-2-1.9-16.9-21.3-33.7 5"/><path d="M498 161.1a17.4 14.3-39.4 0 1-16 16.7 17.4 14.3-39.4 0 1-16.1-10.8 17.4 14.3-39.4 0 1 12.5-19 17.4 14.3-39.4 0 1 19 6.6"/><path fill="#fff" stroke="#000" stroke-linecap="round" stroke-width="1.1" d="M416.3 142.7c-2.6 4 4.5 22 14.6 23.5a19.8 19.8 0 0 0 23.3-13 20 20 0 0 0-3-15c-1.6-2.1-18.4-21.8-35.2 4.6"/><path d="M443 132.9a16.7 14.6-50.9 0 1-.7 21 16.7 14.6-50.9 0 1-20.6 4.5 16.7 14.6-50.9 0 1-3.7-20.2 16.7 14.6-50.9 0 1 19.7-8.7"/><path fill="#fff" d="M505.8 129a116.3 116.3 0 0 0-22.2-14.6 284.5 284.5 0 0 0-23.2-10.6c-2-1-4.7-2-5.9-2.4a58 58 0 0 1-7.6-3.1l-.2-1c0-1-1-10.3-1.3-11.8-.4-2-1-4.8-1.5-5.7l-2.5-6.8-.7-1.8.9-.4c1.2-.5 2-.8 4.7-1.4 2.1-.5 2.4-.5 7-.5 5 0 5.7.1 13.8 1.4a98.6 98.6 0 0 1 18.3 4.4 100 100 0 0 1 17.2 6.9c6.1 3 9.6 5.1 13.4 7.9a99.4 99.4 0 0 1 23.4 21.7l1.9 3.8a17.7 17.7 0 0 0 1.6 3.2l-2.7 1c-3.2 1-5.4 2-8.8 4l-2.8 1.7-1.2-.4-2.4-.4a37 37 0 0 0-11.3 1.6 21 21 0 0 0-5.2 2.8l-1.2.8-.6.5zm14.8-44.2A104.3 104.3 0 0 0 488.8 69l-3.5-1 1.2-.5a76.6 76.6 0 0 1 12.2-2l1.5.2c1.2 0 3 .3 4.7 1l2.5.7a4 4 0 0 1 1.7.8 7 7 0 0 0 1.7 1A8.7 8.7 0 0 1 514 72c1 1 2 2.3 2.5 3.5l1.1 1.8a38.7 38.7 0 0 1 2.8 5l1.5 3.5-1.4-1z"/><path fill="none" stroke="#014" stroke-linecap="round" stroke-width="6.3" d="m443.7 100.8 2.4.8 1.4.6 2.5 1.1c1 .4 2 .8 3.2 1.1 1.1.3 2.3.7 3.5 1.3a725 725 0 0 1 8 3.6 421901.7 421901.7 0 0 0 13.8 6.2 86.7 86.7 0 0 1 12.5 7 110.4 110.4 0 0 1 10.2 7c1 .7 2 1.5 2.8 2.3a42.6 42.6 0 0 0 4.4 4.1 28.5 28.5 0 0 1 3 3.7 21.5 21.5 0 0 1 1.3 2.2l.2.1m-69.2-41.1-.2-2.3-.1-2.3-.4-2.9a275.9 275.9 0 0 1-.6-6c0-1-.3-1.8-.5-2.5l-.4-2c-.1-.7-.3-1.3-.5-1.7a28301.9 28301.9 0 0 0-.8-1.9l-.6-1.7-1.5-3.7c-.6-1.6-.6-2.5-1.2-3.6m76.3 68.6.3-.4q.3-.3 1.6-.9 1.3-.6 2.7-1.6l2.7-1.9q1.2-1 2.8-1.9l3.3-2 3.5-2.3 3.4-2q1.5-1 2.8-1.6l2.4-1.1q1-.5 2.2-.8l2-.6 2-.7 1.9-.4 2.2-.5 2-.5.8-.2"/><path fill="none" stroke="#014" stroke-linecap="round" stroke-width="6.3" d="m545.2 115.6-.3-.6q-.4-.6-.8-1.9-.5-1.3-1.5-2.8-1-1.6-2.7-3.8-1.7-2.3-4-4.6-2.4-2.4-5.5-5.1-3-2.7-5.7-4.7l-5.3-4.2-5.4-3.8q-2.7-1.7-5.7-3.3l-6.2-3.2q-3.2-1.5-6.5-2.8l-6.6-2.4-6.4-2q-3-1-6-1.6-3-.7-5.7-1.1l-5.7-1-5.5-.8q-2.6-.3-5-.3h-4.2q-2 0-3.3.3l-3 .7q-1.6.3-2.9.8-1.3.4-2.7 1.2-1.4.8-2.8 1.3l-2.7 1-1.3.7"/><path fill="none" stroke="#014" stroke-linecap="round" stroke-width="6.3" d="M474.6 67.4h.1l.8-.1 1.4-.5 2-.7 2.6-.6 2.4-.6 2-.7 1.8-.4 1.6-.3 1.6-.4 1.7-.3 1.7-.3 1.5-.2 1.2-.1q.7-.2 1.6 0l1.8.1 1.7.2 1.7.3 1.6.5 1.8.6 1.7.5q.8.2 1.4.6l1.1.8 1.2.7 1 .6 1.2.8 1 1 .7.9 1 1 1 1.4.9 1.5 1 2q.7.9 1.3 2.2l1.5 2.7q.8 1.4 1.2 2.6l1 2.6.8 2.4.6 2 .6 2 .4 1.2m12 33 .3 1.1 1.4 5.2q1.1 4.2 3 9.5l4 10.5 3.5 8.5 2 5.1q.7 1.6-.1.6l-2.6-2.5-3-2.8q-1.2-1.3-1.7-1.6-.5-.3.2 1.7.6 2 2.5 6.5l4.3 9.8 4.4 10.3 3.3 8.7q1.3 3.8 2 6.5.6 2.7.6 5 0 2.2-.4 4.7l-.3 2.5m-20.9-90.9.3 1.1 1.6 3.8 2.9 5.7 3 5.7 2.4 4.3 1.2 2 .3.7q0 .2 1.5 1.7 1.4 1.6 3.6 4.6 2.2 3 4.4 6.7l2.3 3.6"/><g fill="none" stroke="#014" stroke-linecap="round" stroke-width="2.2"><path d="M496 110.3h-.7l-.9.2h-2l-1.1-.2-1-.2-1-.3-1-.2-.8-.3-.8-.4-.8-.5-.7-.6-.6-.6-.5-.5-.4-.6-.5-.8-.4-1-.4-1-.4-1.3-.3-1.1-.3-1.2-.3-1-.2-.8v-.5l-.1-.3h-.1V97m-.2-.1h0l-.5.4-.7.6-.8.8-1.1 1m3.4-2.9.6.2 1.2.5 1 .4.7.4.5.2.1.1"/><path d="M493 106.8c1.2 1.6 1.8 2.2 3 3.5l-.2.2-.6.7-3.2 2.5m6.3-20c-4.8 4.3-9.2 9.2-12.8 13.4"/><path d="m498 100.7-.5-.4-1.3-1-1.7-1.5-1.6-1.5-1.1-1.1-.7-.7-.3-.3q0 0 0 0V94m12-3.8-.3-.4-.6-1q-.4-.6-1-1-.6-.6-1.2-.7-.6-.2-1.2 0-.5 0-1 .3-.4.3-.7.8l-.3 1v1.3l.7 1.6q.5.8 1.2 1.5l1.3 1.3q.7.5 1.2.6.4.2.8.1.4 0 .8-.4t.5-1.2q.2-1-.1-2.6l-.4-1.7"/></g><g fill="none" stroke-linecap="round"><path stroke="#000" stroke-width="6.5" d="M531.2 185h.5l1.2-.2c.5 0 1 0 1.6-.2a26.6 26.6 0 0 1 3.2-.5 59.5 59.5 0 0 0 5.1-1.4v-.3l-.2-.8a25.3 25.3 0 0 1-1-2.7c-2.5-9-5-13.8-9.6-21.8"/><path stroke="#fff" stroke-width="34.2" d="M519.3 143.8v0"/><path stroke="#000" stroke-width="5.1" d="M511.2 129.9c.6-.4-.3.3 0 0l3.6-1.8a17 17 0 0 1 3.4-.9l1.9-.3 1.9-.1a18.8 18.8 0 0 1 3.5 0c.5 0 1 .2 1.6.4l1.7.8a12.8 12.8 0 0 1 3.1 1.9 13.1 13.1 0 0 1 2.6 2.6l1.2 1.5c.5.5.8 1 1 1.5a26.5 26.5 0 0 1 1.2 2.8l.3 1.6v1.7l-.2 1.6c0 .6-.2 1.2-.3 1.7a26 26 0 0 1-6.3 9.6 33.5 33.5 0 0 1-6.7 4.6l-1.6.6-1.6.4a117 117 0 0 0-3 .2l-1.7-.2c-.5 0-1-.2-1.6-.5a41.6 41.6 0 0 1-4.5-2.8l-1.3-1-1.1-1.2a114.9 114.9 0 0 0-2.4-3.4 27.9 27.9 0 0 1-2.6-5.4c-.2-.7-.2-1.3-.2-1.9a16.1 16.1 0 0 1 .9-5.5 21.2 21.2 0 0 1 4.9-7l1-.7"/></g><g fill="none" stroke-linecap="round"><path stroke="#999" stroke-width="7.6" d="m420.5 190.4-9.9 3.7a71.4 71.4 0 0 1-9.8 3c-1.7.6-3.5 1-5.2 1.5-1.7.5-3.5.9-5.3 1.2a71.2 71.2 0 0 0-10.3 2.1c-1.7.4-3.4.8-4.9 1a33.9 33.9 0 0 0-8 2.5l-2.5.9-1.6.5a8 8 0 0 1-1 .5c-.3 0-.5.2-.6.4 0 .2-.2.3-.3.3l-.1.3.1 1 .7 1.9 1.5 2.4a146.4 146.4 0 0 0 4.3 5.8 1076.9 1076.9 0 0 0 6.4 6.6 105.7 105.7 0 0 1 6.6 6.4 101.4 101.4 0 0 1 10.8 11.5l.2.2"/><path stroke="#fff" stroke-width="34.5" d="M406.6 258.6v0"/><path stroke="#999" stroke-width="5" d="M404.2 240.9a21.5 21.5 0 0 0-7.6 2.5 30.5 30.5 0 0 0-4.9 4 34.5 34.5 0 0 1-1.7 2.6l-.4 1-.5.9a4 4 0 0 0-.3 1l-.3.9-.2.8-.1 1v2.1l.2 1a19 19 0 0 1 .6 2 43.4 43.4 0 0 1 1 3.4 14 14 0 0 0 1.3 3l.7 1 .7 1.2a9 9 0 0 0 1.6 2 13.6 13.6 0 0 0 3.3 2.5 9 9 0 0 0 2.4 1l1.1.3a11.7 11.7 0 0 0 2.4.4h3.9l1.3-.2a19476.8 19476.8 0 0 0 3.9-.8 11.6 11.6 0 0 0 2.2-.8l1-.6a10.9 10.9 0 0 0 3.2-2.4l.7-.7a18.8 18.8 0 0 0 2.8-5.4 15.7 15.7 0 0 0 .4-2l.2-1v-3.3a12.2 12.2 0 0 0-2.6-7.5 71.5 71.5 0 0 0-3.1-3.4 35.9 35.9 0 0 1-3.8-3.2l-1.3-.8a15622.4 15622.4 0 0 0-2.7-1.5 8 8 0 0 0-1.6-.5c-.5 0-3.2-.6-3.8-.5"/></g></svg>