<?xml version="1.0" encoding="UTF-8" standalone="no"?>
<!--
   D-Man Cargo Ship

   Copyright © 2024  Elias Batek
   License: CC-BY-4.0
-->

<svg
   width="600"
   height="600"
   version="1.1"
   id="svg108"
   inkscape:version="1.2.2 (b0a8486541, 2022-12-01)"
   viewBox="0 0 600 600"
   sodipodi:docname="d-man_cargo-ship.svg"
   xmlns:inkscape="http://www.inkscape.org/namespaces/inkscape"
   xmlns:sodipodi="http://sodipodi.sourceforge.net/DTD/sodipodi-0.dtd"
   xmlns="http://www.w3.org/2000/svg"
   xmlns:svg="http://www.w3.org/2000/svg">
  <defs
     id="defs112" />
  <sodipodi:namedview
     id="namedview110"
     pagecolor="#ffffff"
     bordercolor="#000000"
     borderopacity="0.25"
     inkscape:showpageshadow="2"
     inkscape:pageopacity="0.0"
     inkscape:pagecheckerboard="0"
     inkscape:deskcolor="#d1d1d1"
     showgrid="false"
     inkscape:window-width="2321"
     inkscape:window-height="1361"
     inkscape:window-x="1119"
     inkscape:window-y="0"
     inkscape:window-maximized="0"
     showguides="true" />
  <g
     inkscape:groupmode="layer"
     id="layer2"
     inkscape:label="ship"
     style="display:inline">
    <g
       inkscape:groupmode="layer"
       id="layer12"
       inkscape:label="ship-top"
       style="display:inline">
      <rect
         style="display:inline;fill:#eeeedd;fill-opacity:1;stroke:none;stroke-width:110.2;stroke-linecap:square;stroke-linejoin:miter;stroke-miterlimit:0;stroke-dasharray:none;paint-order:fill markers stroke"
         id="rect1606"
         width="58.892231"
         height="54.248627"
         x="246.50412"
         y="121.98889"
         inkscape:label="ship-top-bg" />
      <path
         style="color:#000000;fill:#eecc99;stroke:#000000;stroke-width:4;stroke-linecap:round;stroke-dasharray:none;stroke-opacity:1"
         d="m 164.42293,125.62952 a 14.1028,14.1028 0 0 0 -14.10156,14.10351 14.1028,14.1028 0 0 0 14.10156,14.10157 c 2.95461,0 71.88894,0.10937 75.79687,0.10937 a 14.1028,14.1028 0 0 0 14.10352,-14.10156 14.1028,14.1028 0 0 0 -14.10352,-14.10352 c -3.33828,0 -72.21113,-0.10937 -75.79687,-0.10937 z"
         id="path241"
         inkscape:label="top-2" />
      <path
         style="color:#000000;fill:#eecc99;stroke:#000000;stroke-width:4;stroke-linecap:round;stroke-dasharray:none;stroke-opacity:1"
         d="m 378.69051,125.31116 c -5.2445,0 -21.62188,0.14703 -37.14649,0.29297 -15.5246,0.14593 -31.36572,0.29101 -30.83203,0.29101 a 14.1028,14.1028 0 0 0 -14.10156,14.10352 14.1028,14.1028 0 0 0 14.10156,14.10351 c 2.40229,0 15.58259,-0.14714 31.09571,-0.29296 15.51311,-0.14583 32.19041,-0.29102 36.88281,-0.29102 a 14.1028,14.1028 0 0 0 14.10351,-14.10352 14.1028,14.1028 0 0 0 -14.10351,-14.10351 z"
         id="path243"
         inkscape:label="top-1" />
      <path
         style="color:#000000;display:inline;fill:#eecc99;stroke:#000000;stroke-width:4;stroke-linecap:round;stroke-dasharray:none;stroke-opacity:1"
         d="m 305.0284,106.24475 c -1.80128,0 -3.47027,0.0553 -7.75977,0.13867 -4.28949,0.0834 -10.06626,0.1979 -16.41406,0.32032 -12.6956,0.24483 -27.69191,0.5243 -37.55859,0.66015 -6.46704,0.089 -10.84811,4.26467 -12.46485,6.49414 -1.61673,2.22948 -1.99089,3.55651 -2.33203,4.5918 -0.68228,2.07059 -0.77508,3.12158 -0.91797,4.21875 -0.28577,2.19435 -0.37395,4.1699 -0.44531,6.49805 -0.14272,4.6563 -0.10031,10.37535 0.004,16.29883 0.20843,11.84694 0.68587,25.16035 0.69531,27.25 a 15.42345,15.42345 0 0 0 15.49414,15.35351 15.42345,15.42345 0 0 0 15.35352,-15.49219 c -0.0211,-4.66249 -0.50082,-16.26452 -0.70118,-27.65234 -0.0471,-2.67803 0.002,-4.55313 -0.006,-6.9668 7.92921,-0.13672 15.56575,-0.25959 23.47461,-0.41211 3.48419,-0.0672 6.01377,-0.1174 9,-0.17578 0.1022,3.36544 0.21236,6.3914 0.29883,10.15235 0.29516,12.837 0.48047,27.20536 0.48047,27.3164 a 15.42345,15.42345 0 0 0 15.42383,15.42188 15.42345,15.42345 0 0 0 15.42383,-15.42188 c 0,-2.78428 -0.19079,-15.00175 -0.49024,-28.02539 -0.14972,-6.51182 -0.32479,-12.9317 -0.52539,-17.86914 -0.1003,-2.46872 -0.20312,-4.5348 -0.33398,-6.26953 -0.0654,-0.86737 -0.11963,-1.59103 -0.27344,-2.65234 -0.0769,-0.53066 -0.11983,-1.05306 -0.50781,-2.41993 -0.194,-0.68343 -0.35264,-1.53167 -1.42969,-3.44921 -0.53852,-0.95878 -1.28139,-2.26805 -3.18164,-3.96875 -1.90025,-1.70071 -5.67355,-3.93946 -10.30664,-3.93946 z"
         id="path237"
         inkscape:label="top-m" />
    </g>
    <g
       inkscape:groupmode="layer"
       id="layer11"
       inkscape:label="ship-upper"
       style="display:inline">
      <rect
         style="display:inline;fill:#eae4e1;fill-opacity:1;stroke:none;stroke-width:70.621;stroke-linecap:square;stroke-linejoin:miter;stroke-miterlimit:0;stroke-dasharray:none;paint-order:fill markers stroke"
         id="rect898"
         width="133.10956"
         height="127.09792"
         x="205.76239"
         y="188.04358"
         inkscape:label="upper-bg" />
      <path
         style="color:#000000;display:inline;fill:#bbaa99;fill-opacity:1;stroke:#000000;stroke-width:4;stroke-linecap:round;stroke-dasharray:none;stroke-opacity:1"
         d="m 309.75691,166.32678 c -13.22241,-7.4e-4 -28.43618,0.16178 -39.91601,0.8125 -21.17085,1.20005 -24.94394,0.71094 -57.44141,0.71094 -4.43951,0 -8.21062,2.26105 -10.07226,4.02344 -1.86164,1.76239 -2.57465,3.13159 -3.10157,4.16797 -1.05383,2.07275 -1.24852,3.15394 -1.48632,4.16797 -0.47562,2.02805 -0.64139,3.5773 -0.82227,5.42968 -0.36176,3.70476 -0.5754,8.25585 -0.73633,13.72461 -0.32185,10.93752 -0.37849,25.31611 -0.32031,40.14258 0.11637,29.65295 0.70508,61.53381 0.70508,67.95899 a 14.4,14.4 0 0 0 14.40039,14.39843 14.4,14.4 0 0 0 14.40039,-14.39843 c 0,-7.99625 -0.59186,-38.72337 -0.70703,-68.07227 -0.0576,-14.67445 0.006,-28.89676 0.30859,-39.18359 0.0454,-1.54123 0.12671,-2.17603 0.1836,-3.52735 18.97336,0.0835 28.65889,0.21206 46.32031,-0.78906 15.96983,-0.90524 38.67659,-0.76885 53.48437,-0.66211 0.23836,7.92186 0.2657,19.04009 0.17969,31.13086 -0.17384,24.43793 -0.77794,52.5051 -0.76172,67.39062 a 14.4,14.4 0 0 0 14.41602,14.38282 14.4,14.4 0 0 0 14.38476,-14.41407 c -0.0153,-14.04435 0.58565,-42.40233 0.76172,-67.15429 0.088,-12.37598 0.072,-23.85391 -0.19726,-32.55664 -0.13463,-4.35137 -0.31345,-7.93975 -0.66407,-11.0625 -0.17531,-1.56138 -0.32171,-2.90953 -0.88476,-4.94532 -0.28153,-1.01789 -0.54271,-2.19222 -1.83789,-4.33007 -1.29518,-2.13785 -5.23026,-7.18164 -12.62305,-7.18164 -3.51902,0 -14.75024,-0.16332 -27.97266,-0.16407 z"
         id="path167"
         inkscape:label="upper-part" />
    </g>
    <g
       inkscape:groupmode="layer"
       id="layer13"
       inkscape:label="cargo"
       style="display:inline"
       transform="translate(-3.3002929,0.4210205)">
      <g
         inkscape:groupmode="layer"
         id="layer14"
         inkscape:label="row-0"
         style="display:inline">
        <rect
           style="display:inline;fill:#e0eff0;fill-opacity:1;stroke:#00000f;stroke-width:1.60188;stroke-linecap:square;stroke-linejoin:miter;stroke-miterlimit:4;stroke-dasharray:none;stroke-opacity:1;paint-order:markers fill stroke"
           id="rect1738"
           width="38.398121"
           height="40.898121"
           x="386.08667"
           y="301.05435"
           inkscape:label="cargo-container" />
        <rect
           style="display:inline;fill:#994444;fill-opacity:1;stroke:#00000f;stroke-width:1.60188;stroke-linecap:square;stroke-linejoin:miter;stroke-miterlimit:4;stroke-dasharray:none;stroke-opacity:1;paint-order:markers fill stroke"
           id="rect6897"
           width="38.398121"
           height="40.898121"
           x="344.08667"
           y="301.05435"
           inkscape:label="cargo-container" />
        <rect
           style="display:inline;fill:#e0eff0;fill-opacity:1;stroke:#00000f;stroke-width:1.60188;stroke-linecap:square;stroke-linejoin:miter;stroke-miterlimit:4;stroke-dasharray:none;stroke-opacity:1;paint-order:markers fill stroke"
           id="rect6899"
           width="38.398121"
           height="40.898121"
           x="302.08667"
           y="301.05435"
           inkscape:label="cargo-container" />
        <rect
           style="display:inline;fill:#447799;fill-opacity:1;stroke:#00000f;stroke-width:1.60188;stroke-linecap:square;stroke-linejoin:miter;stroke-miterlimit:4;stroke-dasharray:none;stroke-opacity:1;paint-order:markers fill stroke"
           id="rect6901"
           width="38.398121"
           height="40.898121"
           x="260.08667"
           y="301.05435"
           inkscape:label="cargo-container" />
        <rect
           style="display:inline;fill:#e0eff0;fill-opacity:1;stroke:#00000f;stroke-width:1.60188;stroke-linecap:square;stroke-linejoin:miter;stroke-miterlimit:4;stroke-dasharray:none;stroke-opacity:1;paint-order:markers fill stroke"
           id="rect6903"
           width="38.398121"
           height="40.898121"
           x="218.08667"
           y="301.05435"
           inkscape:label="cargo-container" />
        <rect
           style="display:inline;fill:#447799;fill-opacity:1;stroke:#00000f;stroke-width:1.60188;stroke-linecap:square;stroke-linejoin:miter;stroke-miterlimit:4;stroke-dasharray:none;stroke-opacity:1;paint-order:markers fill stroke"
           id="rect6905"
           width="38.398121"
           height="40.898121"
           x="176.08667"
           y="301.05435"
           inkscape:label="cargo-container" />
        <rect
           style="display:inline;fill:#994444;fill-opacity:1;stroke:#00000f;stroke-width:1.60188;stroke-linecap:square;stroke-linejoin:miter;stroke-miterlimit:4;stroke-dasharray:none;stroke-opacity:1;paint-order:markers fill stroke"
           id="rect6907"
           width="38.398121"
           height="40.898121"
           x="134.08669"
           y="301.05435"
           inkscape:label="cargo-container" />
      </g>
      <g
         inkscape:groupmode="layer"
         id="g6931"
         inkscape:label="row-1"
         transform="translate(0,-39.999994)"
         style="display:inline">
        <rect
           style="display:inline;fill:#994444;fill-opacity:1;stroke:#00000f;stroke-width:1.60188;stroke-linecap:square;stroke-linejoin:miter;stroke-miterlimit:4;stroke-dasharray:none;stroke-opacity:1;paint-order:markers fill stroke"
           id="rect6917"
           width="38.398121"
           height="40.898121"
           x="386.08667"
           y="301.05435"
           inkscape:label="cargo-container" />
        <rect
           style="display:inline;fill:#447799;fill-opacity:1;stroke:#00000f;stroke-width:1.60188;stroke-linecap:square;stroke-linejoin:miter;stroke-miterlimit:4;stroke-dasharray:none;stroke-opacity:1;paint-order:markers fill stroke"
           id="rect6919"
           width="38.398121"
           height="40.898121"
           x="344.08667"
           y="301.05435"
           inkscape:label="cargo-container" />
        <rect
           style="display:inline;fill:#e0eff0;fill-opacity:1;stroke:#00000f;stroke-width:1.60188;stroke-linecap:square;stroke-linejoin:miter;stroke-miterlimit:4;stroke-dasharray:none;stroke-opacity:1;paint-order:markers fill stroke"
           id="rect6921"
           width="38.398121"
           height="40.898121"
           x="302.08667"
           y="301.05435"
           inkscape:label="cargo-container" />
        <rect
           style="display:inline;fill:#447799;fill-opacity:1;stroke:#00000f;stroke-width:1.60188;stroke-linecap:square;stroke-linejoin:miter;stroke-miterlimit:4;stroke-dasharray:none;stroke-opacity:1;paint-order:markers fill stroke"
           id="rect6923"
           width="38.398121"
           height="40.898121"
           x="260.08667"
           y="301.05435"
           inkscape:label="cargo-container" />
        <rect
           style="display:inline;fill:#994444;fill-opacity:1;stroke:#00000f;stroke-width:1.60188;stroke-linecap:square;stroke-linejoin:miter;stroke-miterlimit:4;stroke-dasharray:none;stroke-opacity:1;paint-order:markers fill stroke"
           id="rect6925"
           width="38.398121"
           height="40.898121"
           x="218.08667"
           y="301.05435"
           inkscape:label="cargo-container" />
        <rect
           style="display:inline;fill:#e0eff0;fill-opacity:1;stroke:#00000f;stroke-width:1.60188;stroke-linecap:square;stroke-linejoin:miter;stroke-miterlimit:4;stroke-dasharray:none;stroke-opacity:1;paint-order:markers fill stroke"
           id="rect6927"
           width="38.398121"
           height="40.898121"
           x="176.08667"
           y="301.05435"
           inkscape:label="cargo-container" />
        <rect
           style="display:inline;fill:#447799;fill-opacity:1;stroke:#00000f;stroke-width:1.60188;stroke-linecap:square;stroke-linejoin:miter;stroke-miterlimit:4;stroke-dasharray:none;stroke-opacity:1;paint-order:markers fill stroke"
           id="rect6929"
           width="38.398121"
           height="40.898121"
           x="134.08669"
           y="301.05435"
           inkscape:label="cargo-container" />
      </g>
      <g
         inkscape:groupmode="layer"
         id="g6963"
         inkscape:label="row-2"
         transform="matrix(1,0,0,-1,0,595.65795)"
         style="display:inline">
        <rect
           style="display:inline;fill:#447799;fill-opacity:1;stroke:#00000f;stroke-width:1.60188;stroke-linecap:square;stroke-linejoin:miter;stroke-miterlimit:4;stroke-dasharray:none;stroke-opacity:1;paint-order:markers fill stroke"
           id="rect6949"
           width="38.398121"
           height="40.898121"
           x="386.08667"
           y="333.70547"
           inkscape:label="cargo-container" />
        <rect
           style="display:inline;fill:#e0eff0;fill-opacity:1;stroke:#00000f;stroke-width:1.60188;stroke-linecap:square;stroke-linejoin:miter;stroke-miterlimit:4;stroke-dasharray:none;stroke-opacity:1;paint-order:markers fill stroke"
           id="rect6951"
           width="38.398121"
           height="40.898121"
           x="344.08667"
           y="333.70547"
           inkscape:label="cargo-container" />
        <rect
           style="display:inline;fill:#994444;fill-opacity:1;stroke:#00000f;stroke-width:1.60188;stroke-linecap:square;stroke-linejoin:miter;stroke-miterlimit:4;stroke-dasharray:none;stroke-opacity:1;paint-order:markers fill stroke"
           id="rect6953"
           width="38.398121"
           height="40.898121"
           x="302.08667"
           y="333.70547"
           inkscape:label="cargo-container" />
        <rect
           style="display:inline;fill:#e0eff0;fill-opacity:1;stroke:#00000f;stroke-width:1.60188;stroke-linecap:square;stroke-linejoin:miter;stroke-miterlimit:4;stroke-dasharray:none;stroke-opacity:1;paint-order:markers fill stroke"
           id="rect6955"
           width="38.398121"
           height="40.898121"
           x="260.08667"
           y="333.70547"
           inkscape:label="cargo-container" />
        <rect
           style="display:inline;fill:#447799;fill-opacity:1;stroke:#00000f;stroke-width:1.60188;stroke-linecap:square;stroke-linejoin:miter;stroke-miterlimit:4;stroke-dasharray:none;stroke-opacity:1;paint-order:markers fill stroke"
           id="rect6957"
           width="38.398121"
           height="40.898121"
           x="218.08667"
           y="333.70547"
           inkscape:label="cargo-container" />
        <rect
           style="display:inline;fill:#994444;fill-opacity:1;stroke:#00000f;stroke-width:1.60188;stroke-linecap:square;stroke-linejoin:miter;stroke-miterlimit:4;stroke-dasharray:none;stroke-opacity:1;paint-order:markers fill stroke"
           id="rect6959"
           width="38.398121"
           height="40.898121"
           x="176.08667"
           y="333.70547"
           inkscape:label="cargo-container" />
        <rect
           style="display:inline;fill:#e0eff0;fill-opacity:1;stroke:#00000f;stroke-width:1.60188;stroke-linecap:square;stroke-linejoin:miter;stroke-miterlimit:4;stroke-dasharray:none;stroke-opacity:1;paint-order:markers fill stroke"
           id="rect6961"
           width="38.398121"
           height="40.898121"
           x="134.08669"
           y="333.70547"
           inkscape:label="cargo-container" />
      </g>
    </g>
    <g
       inkscape:groupmode="layer"
       id="layer1"
       inkscape:label="dman"
       style="display:inline"
       transform="translate(-4.3535131,45.662062)">
      <path
         style="display:inline;fill:none;fill-opacity:0;stroke:#00000f;stroke-width:6.481;stroke-linecap:round;stroke-linejoin:round;stroke-miterlimit:4;stroke-dasharray:none;stroke-opacity:1;paint-order:markers fill stroke"
         d="m 415.52115,179.04948 c -2.39139,31.07174 -7.26286,82.68568 -3.95915,118.03879"
         id="path3871"
         inkscape:label="foot-2"
         sodipodi:nodetypes="cc" />
      <path
         id="path12720"
         style="color:#000000;display:inline;fill:#ff0000;stroke:#000000;stroke-width:6;stroke-linecap:round;stroke-dasharray:none;stroke-opacity:1"
         d="m 349.99715,-4.1575368 c -7.80789,-0.0923 -9.43645,0.24232 -24.27149,4.39453002 C 315.07726,3.2178132 308.86104,14.266063 311.8409,24.914733 c 2.97992,10.65017 14.0298,16.86769 24.67968,13.88671 1.76046,-0.49274 2.89318,-0.83925 4.14258,-1.21289 2.27778,27.00691 8.76225,52.06271 11.33203,73.853517 2.53905,21.53032 1.7882,38.24701 -6.98828,53.1914 -8.84489,2.46768 -15.11457,10.8022 -14.59961,20.35156 0.59539,11.04247 10.0298,19.5115 21.07227,18.91602 2.7451,-0.14792 3.21252,-0.20462 4.32422,-0.29102 3.44637,0.3502 6.04833,-0.19468 7.08593,-0.38476 1.44318,-0.26437 2.55703,-0.49927 5.03125,-0.9043 7.56143,-1.23778 15.06761,-2.56962 22.54688,-4.43945 7.26331,-1.81581 14.1768,-3.9581 20.73633,-6.45703 6.33716,-2.41413 11.98323,-4.89939 17.06445,-7.60938 4.89776,-2.61215 9.46201,-5.46717 13.66992,-8.62304 v -0.002 c 3.63847,-2.72883 6.92839,-5.38034 9.90625,-8.02734 3.28755,-2.92226 6.26681,-6.04587 8.86914,-9.51563 2.4421,-3.25613 4.55899,-6.75477 6.4043,-10.44531 1.96458,-3.92928 3.53309,-8.05558 4.69141,-12.30273 0.86109,-3.1574 1.71794,-6.44022 2.57031,-9.84961 0.97935,-3.91727 1.78091,-7.94231 2.41601,-12.07032 0.62333,-4.05173 1.09163,-8.11087 1.4043,-12.17578 0.34574,-4.494787 0.36874,-8.879447 -0.0234,-13.195307 v -0.002 c -0.37759,-4.15247 -1.11364,-8.30993 -2.15625,-12.48047 -1.07457,-4.29816 -2.49234,-8.53402 -4.22461,-12.6914 -1.70187,-4.08451 -3.63135,-7.96571 -5.82812,-11.62696 h 0.002 c -2.29773,-3.82957 -4.9658,-7.44052 -7.94922,-10.79687 -2.70818,-3.0467 -5.59196,-5.93049 -8.63867,-8.63867 -2.77149,-2.46355 -5.56798,-4.79571 -8.39453,-6.99414 -3.11031,-2.41915 -6.37837,-4.65399 -9.78711,-6.69922 -2.98785,-1.79271 -6.09723,-3.56866 -9.33008,-5.33204 -3.6807,-2.00765 -7.65346,-3.9047698 -11.95898,-5.7499998 -4.3583,-1.86782 -8.8454,-3.56694 -13.45508,-5.10351 -3.7405,-1.24683998 -7.64157,-2.26227998 -11.72266,-3.08984 -1.77729,-0.36042 -3.58853,-0.68494 -5.43554,-0.97657 -6.21301,-0.98101 -12.46386,-1.47461 -18.71485,-1.47461 -4.69423,0 -7.98331,-0.0786 -10.58593,-0.10937 z m 31.05859,42.8320298 c 0.96513,0.2632 1.90142,0.53029 2.73633,0.80859 3.59648,1.19885 7.04292,2.50725 10.34375,3.92188 3.35359,1.43725 6.22145,2.82285 8.55859,4.09766 2.78498,1.51907 5.41943,3.02587 7.90235,4.51562 2.06203,1.23722 3.99125,2.5583 5.80468,3.96875 2.09718,1.63116 4.22281,3.40335 6.375,5.31641 1.87698,1.66843 3.64406,3.43551 5.3125,5.3125 1.39323,1.56738 2.5563,3.1537 3.54102,4.79492 1.08571,1.8095 2.16568,3.94528 3.19922,6.42578 1.00316,2.40754 1.77314,4.73519 2.33984,7.00195 0.59843,2.39375 0.95743,4.52972 1.12695,6.39453 0.15466,1.70132 0.1778,3.88147 -0.0234,6.49805 -0.23439,3.047127 -0.58583,6.099817 -1.05664,9.160147 -0.45909,2.98398 -1.02557,5.79766 -1.6875,8.44532 -0.78891,3.15557 -1.57343,6.16498 -2.35352,9.02539 -0.48293,1.77075 -1.10424,3.38811 -1.875,4.92968 -0.89015,1.78026 -1.7827,3.20572 -2.62305,4.32618 -0.68013,0.90683 -1.80131,2.15888 -3.4375,3.61328 -1.94581,1.72962 -4.40161,3.72894 -7.32812,5.92383 v -0.002 c -2.35705,1.76775 -5.17988,3.56363 -8.48828,5.32813 -3.12481,1.66647 -7.32382,3.55735 -12.47461,5.51953 h -0.002 c -2.05551,0.78308 -4.24085,1.51203 -6.45898,2.22656 3.5768,-16.61935 3.1562,-33.55909 1.2793,-49.47461 -2.81365,-23.858757 -8.3501,-46.845857 -10.71094,-68.078117 z"
         inkscape:label="dman-body" />
      <g
         inkscape:groupmode="layer"
         id="layer8"
         inkscape:label="d-body"
         style="display:inline" />
      <g
         inkscape:groupmode="layer"
         id="layer9"
         inkscape:label="eye1"
         transform="translate(1.4771729,4.4302979)"
         style="display:inline">
        <path
           d="m 406.38518,52.432033 c -2.52027,2.7371 2.37532,23.33777 12.55014,24.04235 18.54776,1.2844 21.913,-5.92027 24.06954,-11.67973 2.4784,-6.61908 -0.9301,-15.4912 -3.08699,-17.53565 -1.9087,-1.8092 -16.88573,-21.24895 -33.64596,5.10542"
           fill="none"
           stroke="#000000"
           stroke-width="1.05771"
           stroke-linecap="round"
           id="path50"
           sodipodi:nodetypes="csssc"
           style="display:inline;fill:#ffffff;fill-opacity:1;stroke-width:4;stroke-dasharray:none"
           inkscape:label="eye-border" />
        <path
           style="display:inline;fill:#000000;stroke-width:1.21997"
           id="path428"
           transform="matrix(0.99694143,-0.07815237,-0.11342973,0.99354602,0,0)"
           sodipodi:type="arc"
           sodipodi:cx="433.384"
           sodipodi:cy="88.759827"
           sodipodi:rx="16.154442"
           sodipodi:ry="15.654346"
           sodipodi:start="0"
           sodipodi:end="5.8421201"
           sodipodi:arc-type="arc"
           d="M 449.53844,88.759827 A 16.154442,15.654346 0 0 1 435.16169,104.3191 16.154442,15.654346 0 0 1 417.6208,92.184205 16.154442,15.654346 0 0 1 428.13706,73.954209 16.154442,15.654346 0 0 1 447.99242,82.07694"
           sodipodi:open="true"
           inkscape:label="pupil" />
      </g>
      <g
         inkscape:groupmode="layer"
         id="g583"
         inkscape:label="eye2"
         transform="translate(-48.587098,-13.442474)"
         style="display:inline">
        <path
           d="m 421.00547,75.947043 c 17.2285,2.77341 22.90629,-11.15065 23.29754,-13.04353 1.32097,-6.3909 -0.95081,-12.25029 -3.0323,-15.02151 -1.57943,-2.10279 -18.3316,-21.74761 -34.98868,4.578395 -2.42278,3.883275 4.65389,21.865675 14.72344,23.486645 z"
           fill="none"
           stroke="#000000"
           stroke-width="1.05771"
           stroke-linecap="round"
           id="path579"
           sodipodi:nodetypes="ssscs"
           style="display:inline;fill:#ffffff;stroke-width:4;stroke-dasharray:none"
           inkscape:label="eye-border" />
        <path
           style="display:inline;fill:#000000;stroke-width:1.19539"
           id="path581"
           transform="matrix(0.71044754,-0.70375016,0.67926444,0.7338936,0,0)"
           sodipodi:type="arc"
           sodipodi:cx="272.46393"
           sodipodi:cy="335.26959"
           sodipodi:rx="16.681805"
           sodipodi:ry="14.554555"
           sodipodi:start="0"
           sodipodi:end="5.8421201"
           sodipodi:arc-type="arc"
           d="m 289.14573,335.26959 a 16.681805,14.554555 0 0 1 -14.84609,14.46616 16.681805,14.554555 0 0 1 -18.1135,-11.28236 16.681805,14.554555 0 0 1 10.85956,-16.94925 16.681805,14.554555 0 0 1 20.50354,7.55207"
           sodipodi:open="true"
           inkscape:label="pupil" />
      </g>
      <g
         inkscape:groupmode="layer"
         id="layer4"
         inkscape:label="hat"
         style="display:inline">
        <path
           style="display:inline;fill:#f0f4f6;fill-opacity:1;stroke-width:0.181532"
           d="m 447.53801,25.874123 c -0.49756,-0.45545 -2.72176,-2.19794 -4.94262,-3.87219 -3.10075,-2.33757 -5.36903,-3.8472 -9.77287,-6.50419 -3.15418,-1.90305 -6.7529,-3.99703 -7.99712,-4.65329 -2.98518,-1.5744998 -9.82896,-4.7674298 -15.46775,-7.2163898 -2.49727,-1.08458 -6.24847,-2.75089998 -8.336,-3.70290998 -2.08754,-0.95202002 -4.77281,-2.03874002 -5.96726,-2.41495002 -2.03165,-0.6399 -7.32408,-2.81928 -7.82734,-3.22325 -0.12442,-0.0999 -0.22662,-0.56077 -0.22709,-1.02421 -10e-4,-1.03245 -1.01569,-10.6205302 -1.28382,-12.1319542 -0.38257,-2.156532 -1.09718,-4.934567 -1.52227,-5.917797 -0.46222,-1.069125 -1.4911,-3.787706 -2.62896,-6.946453 l -0.69851,-1.939082 0.93093,-0.402929 c 1.22618,-0.530714 2.12281,-0.790242 4.84154,-1.401341 2.17164,-0.488134 2.45432,-0.508178 7.05818,-0.500649 5.18206,0.0082 5.96859,0.08941 14.20683,1.461722 8.66203,1.442925 11.75898,2.184148 18.69748,4.475039 8.78329,2.899991 11.38664,3.948515 17.69789,7.127955 6.20397,3.125404 9.76618,5.245782 13.64526,8.122229 12.11949,8.9869202 20.00516,16.3599202 23.97347,22.4148502 0.49226,0.7511 1.36713,2.4667498 1.94416,3.8125698 0.57703,1.3458 1.21792,2.62769 1.42423,2.84864 0.20632,0.22095 0.30792,0.44062 0.22578,0.48814 -0.0821,0.0475 -1.32314,0.4737 -2.75775,0.94704 -3.30565,1.09067 -6.06642,2.22738 -8.91853,5.18341 -5.30216,5.49537 -13.31605,8.20984 -19.39512,12.16003 -0.32735,0.21271 -5.58771,-4.95217 -5.71226,-5.38006 0,0 -0.1061,-0.69271 -0.28579,-0.98189 -0.21611,-0.3478 -0.90469,-0.82809 -0.90469,-0.82809 z"
           id="path1682"
           inkscape:label="hatbackground-lower"
           sodipodi:nodetypes="sssssssssssscsscssssssssssssss" />
        <path
           style="display:inline;fill:#f0f4f6;fill-opacity:1;stroke-width:0.094853"
           d="m 463.33563,-17.784308 c -4.07188,-3.193625 -7.62976,-5.482922 -13.22184,-8.507537 -7.86386,-4.253364 -11.22264,-5.716586 -20.27819,-8.833969 l -3.70436,-1.275234 1.28347,-0.41893 c 1.88655,-0.615774 8.86516,-2.054147 10.00948,-2.063069 0.27059,-0.0023 0.80481,-0.06078 1.18715,-0.130321 0.5745,-0.104506 0.85727,-0.10418 1.62945,0.0022 0.51386,0.07051 1.23552,0.129162 1.60366,0.13031 1.26219,0.0043 3.24567,0.433449 4.93394,1.068376 0.84831,0.319033 2.02272,0.713091 2.60982,0.875696 0.93633,0.25931 1.16083,0.364609 1.82763,0.857221 0.41811,0.308877 1.20014,0.813034 1.73785,1.120369 1.36864,0.782226 2.32562,1.496106 2.66711,1.989582 0.16031,0.231663 0.56078,0.725292 0.88992,1.096963 0.97473,1.100657 1.99342,2.574921 2.64411,3.826639 0.33532,0.645039 0.84372,1.547923 1.12978,2.006407 0.28604,0.458482 0.90549,1.594538 1.37653,2.524578 0.47104,0.93004 1.15913,2.288467 1.52909,3.018722 0.55245,1.090469 1.64568,3.742558 1.56396,3.794068 -0.012,0.008 -0.6504,-0.47914 -1.41856,-1.081621 z"
           id="path1554"
           inkscape:label="hatbackground-upper" />
        <path
           d="m 385.25771,-2.9125668 2.32663,0.77346 c 0.22399,0.0745 0.68613,0.31671 1.42504,0.63338 0.73891,0.31667 1.58339,0.68612002 2.53346,1.10836002 0.95005,0.42224 2.00566,0.79171 3.16683,1.1084 1.16118,0.31668998 2.32234,0.73893998 3.48349,1.26672998 1.16117,0.52779 2.4279,1.10836 3.80018,1.74173 1.37229,0.63336 2.79735,1.26673 4.2752,1.9001 1.47787,0.63339 2.95573,1.26676 4.4336,1.90013 1.47784,0.63336 3.00846,1.3195 4.59185,2.05841 1.58341,0.7389098 3.16683,1.4778298 4.75025,2.2167598 1.5834,0.73893 3.06124,1.47787 4.43352,2.2168 1.3723,0.73893 2.74459,1.53064 4.11688,2.37512 1.3723,0.84449 2.69181,1.63618 3.95853,2.37508 1.26673,0.73892 2.48068,1.47785 3.64185,2.21678 1.16117,0.73893 2.26956,1.53064 3.32516,2.37512 1.05561,0.84449 2.11121,1.6362 3.16681,2.37513 1.05563,0.73893 2.00568,1.53063 2.85015,2.37512 0.84449,0.84448 1.6362,1.5834 2.37513,2.21675 0.73893,0.63337 1.42507,1.26674 2.05841,1.9001 0.63335,0.63336 1.21393,1.26672 1.74176,1.90008 0.52783,0.63337 0.95007,1.21395 1.2667,1.74176 0.31671,0.52781 0.58064,1.00284 0.7918,1.42508 0.21107,0.42225 0.36938,0.68616 0.47495,0.79172 l 0.15835,0.15836"
           fill="none"
           stroke="#001144"
           stroke-width="6.33364"
           stroke-linecap="round"
           id="path52"
           sodipodi:nodetypes="csssssssssssssssssssssssc"
           style="display:inline" />
        <path
           d="m 385.24074,-2.9318268 -0.1899,-2.21575 c -0.0541,-0.63104 -0.0528,-1.42506 -0.15834,-2.37513 l -0.31666,-2.8501502 c -0.10557,-0.95005 -0.21113,-1.95288 -0.3167,-3.00848 -0.10555,-1.05561 -0.2111,-2.05843 -0.31665,-3.00847 -0.10557,-0.95005 -0.26392,-1.794532 -0.47505,-2.533442 -0.21111,-0.73893 -0.36946,-1.42507 -0.47503,-2.05844 -0.10555,-0.63336 -0.26388,-1.16116 -0.475,-1.5834 -0.21111,-0.42226 -0.36945,-0.73895 -0.47501,-0.95007 -0.10557,-0.21113 -0.21114,-0.52781 -0.31671,-0.95005 -0.10557,-0.42224 -0.31668,-1.00282 -0.63335,-1.74173 -0.31668,-0.73893 -0.7917,-1.95288 -1.42506,-3.64184 -0.63339,-1.68899 -0.66086,-2.56941 -1.26627,-3.64647"
           fill="none"
           stroke="#001144"
           stroke-width="6.33364"
           stroke-linecap="round"
           id="path54"
           sodipodi:nodetypes="cssssssssssssc"
           style="display:inline" />
        <path
           d="m 454.72094,35.071023 q 0,0 0.3167,-0.31665 0.31665,-0.31665 1.5834,-0.95005 1.2667,-0.63339 2.69175,-1.58343 1.42511,-0.95004 2.69189,-1.9001 1.26672,-0.95003 2.8501,-1.90007 1.58336,-0.95003 3.32516,-2.05843 1.74173,-1.1084 3.4835,-2.21678 1.74175,-1.10837 3.3251,-2.05842 1.58346,-0.95003 2.85025,-1.58342 1.26675,-0.6334 2.37505,-1.1084 1.10835,-0.47501 2.21674,-0.79168 1.1084,-0.3167 2.05846,-0.63337 0.9501,-0.31668 1.9001,-0.63336 0.95,-0.31667 1.9001,-0.47504 0.95006,-0.15836 2.2168,-0.47503 1.2667,-0.3167 2.0584,-0.475 l 0.7917,-0.15834"
           fill="none"
           stroke="#001144"
           stroke-width="6.33364"
           stroke-linecap="round"
           id="path56"
           style="display:inline" />
        <path
           d="m 486.70584,11.953223 q 0,0 -0.3167,-0.63336 -0.3167,-0.63337 -0.7917,-1.9000898 -0.475,-1.26672 -1.42503,-2.85013 -0.95007,-1.5834 -2.69184,-3.80017 -1.74173,-2.21675998 -4.11688,-4.59188 -2.37515,-2.37513 -5.38361,-5.06693 -3.00848,-2.6918 -5.70024,-4.7502402 -2.6918,-2.05845 -5.3836,-4.11686 -2.69185,-2.058442 -5.3836,-3.800172 -2.6918,-1.74176 -5.7003,-3.3252 -3.00847,-1.5834 -6.1753,-3.1668 -3.1668,-1.5834 -6.49198,-2.85016 -3.32516,-1.26672 -6.65032,-2.37512 -3.32517,-1.10837 -6.33363,-2.05842 -3.00847,-0.95004 -6.01697,-1.5834 -3.00848,-0.63336 -5.70028,-1.10837 -2.6918,-0.47503 -5.70029,-0.95007 -3.00848,-0.47504 -5.54193,-0.79172 -2.53345,-0.31668 -4.90857,-0.31668 -2.37513,0 -4.27521,0 -1.90012,0 -3.32519,0.31668 -1.42505,0.31668 -3.00845,0.63336 -1.58341,0.3167 -2.85013,0.79172 -1.26675,0.47504 -2.69185,1.26673 -1.42504,0.79171 -2.85008,1.26672 -1.42508,0.47503 -2.69182,1.1084 l -1.2667,0.63336"
           fill="none"
           stroke="#001144"
           stroke-width="6.33364"
           stroke-linecap="round"
           id="path58"
           style="display:inline" />
        <path
           d="m 416.0857,-36.282349 q 0,0 0.15836,0 0.15833,0 0.79168,-0.15836 0.63337,-0.15832 1.42506,-0.475 0.79171,-0.31668 2.05847,-0.63336 1.26672,-0.31668 2.53345,-0.63336 1.26672,-0.31668 2.37512,-0.63336 1.10837,-0.31668 2.0584,-0.63336 0.95008,-0.31669 1.74177,-0.47504 0.79173,-0.15836 1.58343,-0.31668 0.7917,-0.15834 1.58338,-0.31668 0.79172,-0.15836 1.74176,-0.31668 0.95004,-0.15836 1.74176,-0.31672 0.7917,-0.15832 1.42508,-0.15832 0.63336,0 1.26672,-0.15834 0.63336,-0.15834 1.5834,0 0.95005,0.15834 1.74177,0.15834 0.79173,0 1.74173,0.15832 0.95004,0.15836 1.7418,0.31672 0.7917,0.15832 1.58336,0.475 0.79174,0.31668 1.74174,0.63336 0.95003,0.31668 1.7418,0.47504 0.7917,0.15836 1.4251,0.63339 0.63335,0.47501 1.1083,0.79169 0.47506,0.31668 1.1084,0.63336 0.6334,0.31668 1.1084,0.63336 0.475,0.31668 1.10836,0.79169 0.63334,0.47503 0.95008,0.95007 0.31671,0.47501 0.79176,0.95002 0.475,0.47504 0.95,1.10839 0.475,0.63337 0.95,1.26673 0.47504,0.63339 0.9501,1.58342 0.475,0.95006 1.1084,1.9001 0.63334,0.95004 1.2667,2.21676 0.63336,1.26674 1.4251,2.69181 0.7917,1.42508 1.26674,2.6918 0.47496,1.26673 0.95001,2.53348 0.47505,1.266722 0.79169,2.375092 0.31671,1.10836 0.63342,2.05844 0.31664,0.95007 0.6333,2.05844 l 0.31674,1.10838"
           fill="none"
           stroke="#001144"
           stroke-width="6.33364"
           stroke-linecap="round"
           id="path60"
           style="display:inline" />
        <path
           d="m 481.32219,22.720433 q 0,0 0.31671,1.1084 0.31671,1.1084 1.42511,5.22526 1.1084,4.11684 3.00848,9.50045 1.90009,5.3836 3.9585,10.45053 2.05841,5.06692 3.48352,8.55042 1.42513,3.4835 2.05847,5.0669 0.63336,1.5834 -0.15839,0.6333 -0.79175,-0.95 -2.53345,-2.5334 -1.74175,-1.5834 -3.00854,-2.8501 -1.26672,-1.26675 -1.7417,-1.5834 -0.47496,-0.3167 0.15839,1.7417 0.63335,2.0585 2.53345,6.492 1.9001,4.43354 4.2752,9.81714 2.3751,5.38361 4.43353,10.29216 2.05842,4.9086 3.32514,8.70876 1.26673,3.80014 1.90008,6.49194 0.63335,2.691837 0.63335,4.908597 0,2.21677 -0.31663,4.7502 l -0.31667,2.5335"
           fill="none"
           stroke="#001144"
           stroke-width="6.33364"
           stroke-linecap="round"
           id="path62"
           style="display:inline" />
        <path
           d="m 483.85569,21.137063 q 0,0 0.31672,1.10837 0.31663,1.10836 1.58337,3.80016 1.26672,2.6918 2.85016,5.7003 1.58343,3.00848 3.0085,5.70028 1.425,2.6918 2.3751,4.27522 0.9501,1.5834 1.2667,2.05843 0.3167,0.47504 0.3167,0.63337 0,0.15832 1.425,1.74172 1.42514,1.5834 3.6419,4.59188 2.21677,3.0085 4.43357,6.65034 l 2.21679,3.64186"
           fill="none"
           stroke="#001144"
           stroke-width="6.33364"
           stroke-linecap="round"
           id="path64"
           style="display:inline" />
        <g
           inkscape:groupmode="layer"
           id="layer5"
           inkscape:label="anchor"
           style="display:inline">
          <path
             d="m 437.56554,6.6202132 q 0,0 -0.16257,0 -0.16257,0 -0.59601,0.0542 -0.43344,0.0542 -0.86689,0.10836 -0.43343,0.0542 -0.97525,0.0542 -0.5418,0 -1.08361,-0.10836 -0.54181,-0.10838 -1.08362,-0.16258 -0.54181,-0.0542 -1.02942,-0.16256 -0.48761,-0.10836 -0.97525,-0.27091 -0.48764,-0.16255 -0.92108,-0.27087 -0.43344,-0.10834 -0.8669,-0.27091 -0.43343,-0.16257 -0.8127,-0.37927 -0.37927,-0.2167 -0.75854,-0.4876 -0.37928,-0.2709 -0.70436,-0.59602 -0.32506,-0.3251 -0.59597,-0.59601 -0.2709,-0.2709 -0.48763,-0.54181 -0.21674,-0.2709 -0.43345,-0.59596 -0.2167,-0.3251 -0.43345,-0.75853 -0.21673,-0.43344 -0.43346,-0.97524998 -0.21674,-0.54182 -0.43344,-1.13779 -0.2167,-0.59597002 -0.37924,-1.19198002 -0.16254,-0.59601 -0.32511,-1.13782 -0.16257,-0.54181 -0.2709,-1.13779 -0.10835,-0.59597 -0.27091,-1.02941 -0.16256,-0.43345 -0.21674,-0.81273 -0.0542,-0.37926 -0.10833,-0.5418 -0.0542,-0.16253 -0.0542,-0.21673 0,-0.0542 -0.0542,-0.10837 l -0.0542,-0.0542"
             fill="none"
             stroke="#001144"
             stroke-width="2.16723"
             stroke-linecap="round"
             id="path66"
             style="display:inline" />
          <path
             d="m 422.0698,-6.8166768 -0.10836,0.10837 c -0.0722,0.0723 -0.21673,0.18061 -0.43344,0.3251 -0.21672,0.14449 -0.45151,0.34316 -0.70436,0.596 -0.25284,0.25285 -0.53856,0.4897 -0.8127,0.75853 -0.65658,0.64385 -0.61612,0.61311 -1.07604,1.13003"
             fill="none"
             stroke="#001144"
             stroke-width="2.16723"
             stroke-linecap="round"
             id="path68"
             style="display:inline"
             sodipodi:nodetypes="cssssc" />
          <path
             d="m 422.35413,-6.8923368 q 0,0 0.59602,0.2167 0.59601,0.21671 1.13782,0.43346 0.54181,0.21672 0.97526,0.43343 0.43343,0.2167 0.7585,0.37927 0.32508,0.16257 0.4876,0.2709 l 0.16255,0.10834"
             fill="none"
             stroke="#001144"
             stroke-width="2.16723"
             stroke-linecap="round"
             id="path70"
             style="display:inline" />
          <path
             d="m 434.59834,3.1150232 c 1.09598,1.60177 1.7221,2.14441 2.89916,3.51016 0.0236,0.0274 -0.018,0.0722 -0.16253,0.2167 -0.14448,0.14448 -0.33553,0.38941 -0.6502,0.65018 -1.07047,0.88709 -2.10941,1.85316 -3.14267,2.4925"
             fill="none"
             stroke="#001144"
             stroke-width="2.16723"
             stroke-linecap="round"
             id="path74"
             style="display:inline"
             sodipodi:nodetypes="csssc" />
          <path
             d="m 439.84111,-9.9591268 c -4.84413,4.22476 -9.19201,9.16511002 -12.8048,13.35722"
             fill="none"
             stroke="#001144"
             stroke-width="2.16723"
             stroke-linecap="round"
             id="path76"
             style="display:inline"
             sodipodi:nodetypes="cc" />
          <path
             d="m 439.49762,-3.0154868 q 0,0 -0.43344,-0.37928 -0.43344,-0.37927 -1.30032,-1.0836 -0.86689,-0.70436 -1.7338,-1.4629 -0.86691,-0.75855 -1.57126,-1.4087 -0.70434,-0.65014 -1.13778,-1.13778 -0.43345,-0.48764 -0.65018,-0.70438 -0.21674,-0.21674 -0.32507,-0.2709 -0.10834,-0.0542 -0.10834,-0.10837 v -0.0542"
             fill="none"
             stroke="#001144"
             stroke-width="2.16723"
             stroke-linecap="round"
             id="path78"
             style="display:inline" />
          <path
             d="m 444.28394,-13.535057 q 0,0 -0.21676,-0.37927 -0.21667,-0.37928 -0.65014,-0.97525 -0.4335,-0.59598 -1.02946,-1.08363 -0.59597,-0.48763 -1.19194,-0.65017 -0.596,-0.16253 -1.1378,-0.0542 -0.5418,0.10837 -0.97525,0.37927 -0.43345,0.27091 -0.70435,0.75852 -0.2709,0.48761 -0.3251,1.08362 -0.0542,0.59601 0.0542,1.30035 0.10837,0.70435 0.59601,1.51706 0.48764,0.81272 1.19199,1.57122 0.70433,0.7585202 1.35449,1.2461602 0.65014,0.48764 1.13778,0.65018 0.48766,0.16254 0.86692,0.10836 0.37924,-0.0542 0.75854,-0.43343 0.3793,-0.37927 0.5418,-1.24619 0.16255,-0.8669102 -0.1626,-2.5465102 l -0.32506,-1.67959"
             fill="none"
             stroke="#001144"
             stroke-width="2.16723"
             stroke-linecap="round"
             id="path80"
             style="display:inline" />
        </g>
      </g>
      <g
         inkscape:groupmode="layer"
         id="layer6"
         inkscape:label="hand-2"
         style="display:inline">
        <path
           d="m 479.21284,80.429293 c 0.53333,-0.1 1.03337,-0.19997 1.5001,-0.3 0.46671,-0.1 0.88341,-0.20001 1.2501,-0.30003 0.36671,-0.10002 0.71674,-0.20004 1.0501,-0.30007 0.3334,-0.1 0.60011,-0.18335 0.80013,-0.25004 0.19998,-0.0667 0.33332,-0.11665 0.40003,-0.14996 0.0667,-0.0333 0.11668,-0.0667 0.15004,-0.10004 0.0333,-0.0333 0.0333,-0.13333 0,-0.29999 -0.0334,-0.16667 -0.11677,-0.43337 -0.2501,-0.80011 -0.13333,-0.36671 -0.26667,-0.76673 -0.4,-1.20006 -0.13333,-0.4334 -0.30002,-0.95013 -0.50006,-1.5502 -2.59194,-8.90782 -5.14061,-13.76866 -9.64805,-21.81587"
           fill="none"
           stroke="#000000"
           stroke-width="6.48063"
           stroke-linecap="round"
           id="path100"
           style="display:inline;stroke-width:6.481;stroke-dasharray:none"
           sodipodi:nodetypes="cssssssssscc"
           inkscape:label="arm" />
        <path
           d="m 452.76586,26.167713 c 0.53911,-0.34551 -0.30434,0.34215 -0.003,-0.0112 0.52399,-0.35877 2.9668,-1.59106 3.52877,-1.77837 0.56198,-0.18732 1.12395,-0.34342 1.6859,-0.4683 0.562,-0.12487 1.15519,-0.24976 1.77956,-0.37466 0.62439,-0.1249 1.24881,-0.21857 1.87324,-0.28101 0.62443,-0.0625 1.24883,-0.1249 1.8732,-0.18731 0.6244,-0.0625 1.24882,-0.0937 1.87325,-0.0937 0.62443,0 1.18641,0.0312 1.68592,0.0937 0.49951,0.0624 1.03026,0.21851 1.59223,0.46832 0.56197,0.24977 1.12393,0.49954 1.6859,0.7493 0.56197,0.24975 1.09271,0.53074 1.5922,0.84295 0.49957,0.31222 0.99914,0.65565 1.4987,1.03028 0.4995,0.37463 0.9678,0.7805 1.4049,1.2176 0.43707,0.43709 0.8429,0.9054 1.2175,1.40493 0.37469,0.49953 0.78059,0.99906 1.2177,1.49859 0.43707,0.49953 0.78048,0.99906 1.03025,1.49858 0.24977,0.4995 0.46832,0.9678 0.65565,1.4049 0.18729,0.43709 0.34337,0.9054 0.46825,1.40493 0.1249,0.49953 0.21857,1.03029 0.28101,1.59227 0.0624,0.56196 0.0624,1.12393 0,1.6859 -0.0625,0.56197 -0.12491,1.12393 -0.18732,1.68588 -0.0625,0.56195 -0.15614,1.12391 -0.28101,1.68589 -0.12489,0.56197 -0.3122,1.12394 -0.56193,1.68591 -0.24977,0.56197 -0.56199,1.18637 -0.93666,1.87322 -0.37463,0.68687 -0.84294,1.40495 -1.40494,2.15424 -0.56193,0.74931 -1.1239,1.46739 -1.6859,2.15426 -0.56193,0.68683 -1.12388,1.28 -1.68584,1.7795 -0.56197,0.49953 -1.12394,0.96783 -1.68591,1.4049 -0.56197,0.43711 -1.12394,0.84298 -1.68591,1.2176 -0.56196,0.37467 -1.12394,0.7181 -1.68594,1.0303 -0.56195,0.3122 -1.12392,0.5932 -1.6859,0.843 -0.56197,0.24976 -1.0927,0.46831 -1.5922,0.65565 -0.49956,0.1873 -1.03033,0.31218 -1.5923,0.37465 -0.56197,0.0624 -1.09273,0.12481 -1.5923,0.18724 -0.4995,0.0625 -0.999,0.0625 -1.4985,0 -0.49953,-0.0624 -1.03028,-0.12481 -1.59224,-0.18724 -0.56197,-0.0625 -1.09272,-0.21858 -1.59223,-0.46834 -0.49955,-0.24977 -1.03031,-0.53076 -1.59228,-0.84296 -0.56197,-0.3122 -1.06148,-0.62441 -1.49855,-0.93664 -0.43707,-0.31217 -0.90538,-0.65559 -1.40495,-1.03026 -0.49957,-0.37465 -0.93666,-0.71808 -1.31128,-1.0303 -0.37465,-0.3122 -0.74928,-0.71807 -1.12391,-1.2176 -0.37464,-0.4995 -0.78049,-1.03023 -1.21756,-1.5922 -0.43711,-0.56197 -0.84301,-1.15515 -1.2177,-1.77954 -0.3746,-0.62444 -0.71802,-1.24887 -1.03025,-1.8733 -0.31217,-0.62437 -0.59313,-1.21755 -0.8429,-1.77954 -0.24979,-0.56197 -0.46834,-1.15516 -0.65565,-1.77957 -0.18733,-0.62441 -0.281,-1.24882 -0.281,-1.87323 0,-0.62441 0.0312,-1.2176 0.0936,-1.77957 0.0625,-0.56197 0.15613,-1.18638 0.281,-1.87323 0.12488,-0.68685 0.31222,-1.31125 0.56201,-1.87322 0.24977,-0.56198 0.53073,-1.12395 0.8429,-1.68592 0.31223,-0.56197 0.62445,-1.09273 0.93665,-1.59226 0.31217,-0.49953 0.6556,-0.96783 1.03027,-1.4049 0.37462,-0.43708 0.71804,-0.84294 1.03027,-1.21759 0.31217,-0.37466 0.65559,-0.71809 1.03026,-1.03028 0.37465,-0.31219 0.74928,-0.56196 1.1239,-0.7493"
           fill="none"
           stroke="#000000"
           stroke-width="5.09518"
           stroke-linecap="round"
           id="path98"
           style="display:inline;fill:#ffffff;fill-opacity:1"
           sodipodi:nodetypes="ccssssssssssssssssssssssssssssssssssssssssssssssssssssssss"
           inkscape:label="hand" />
      </g>
      <g
         inkscape:groupmode="layer"
         id="layer7"
         inkscape:label="hand-1"
         style="display:inline">
        <path
           d="m 358.77339,87.911703 c -3.7785,1.41829 -3.78168,1.4754 -6.64423,2.54099 -1.54013,0.57331 -3.12559,1.10594 -4.76052,1.58683 -1.63493,0.48088 -3.31795,0.96174 -5.04905,1.44257 -1.7311,0.48083 -3.4622,0.96169 -5.1933,1.44257 -1.7311,0.48089 -3.51028,0.8656 -5.33755,1.15413 -1.82729,0.28853 -3.5584,0.62513 -5.19333,1.0098 -1.63493,0.38469 -3.31794,0.76937 -5.04904,1.15406 -1.7311,0.38469 -3.36603,0.72131 -4.90479,1.00984 -1.53876,0.28853 -3.02942,0.67321 -4.47198,1.154037 -1.44259,0.48084 -2.64475,0.91359 -3.60648,1.29826 -0.96172,0.38469 -1.77918,0.67321 -2.45238,0.86556 -0.6732,0.19234 -1.20214,0.38469 -1.58683,0.57704 -0.38471,0.19233 -0.72132,0.3366 -1.00983,0.4328 -0.28851,0.0962 -0.48086,0.24047 -0.57704,0.4328 -0.0962,0.19233 -0.19233,0.2885 -0.2885,0.2885 -0.0962,0 -0.14426,0.0962 -0.14426,0.2885 0,0.19233 0.0481,0.52895 0.14426,1.00984 0.0962,0.48087 0.3366,1.10599 0.72128,1.87536 0.38468,0.76937 0.86555,1.58683 1.4426,2.4524 0.57703,0.86555 1.20215,1.77919 1.87537,2.7409 0.67319,0.96171 1.49066,1.97151 2.45239,3.0294 0.96171,1.05793 1.97151,2.16392 3.02942,3.31795 1.05788,1.15405 2.16386,2.26004 3.31794,3.31795 1.15407,1.05789 2.26004,2.11579 3.31792,3.1737 1.0579,1.05789 2.16388,2.11579 3.31793,3.1737 1.15407,1.0579 2.21198,2.0677 3.17371,3.0294 0.96173,0.96173 1.7792,1.82728 2.45239,2.59663 0.6732,0.76938 1.25023,1.44257 1.73108,2.01957 0.48088,0.57705 1.00983,1.15408 1.58685,1.7311 0.57705,0.57703 1.00983,1.0579 1.29834,1.44263 0.28852,0.38471 0.48086,0.62515 0.57703,0.72132 l 0.14425,0.14425"
           fill="none"
           stroke="#999999"
           stroke-width="7.61684"
           stroke-linecap="round"
           id="path106"
           style="display:inline;stroke:#000000;stroke-width:6.481;stroke-dasharray:none;stroke-opacity:1"
           sodipodi:nodetypes="csssssssssssssssssssssssssssssssc"
           inkscape:label="arm" />
        <path
           d="m 345.72279,137.16355 c -0.53373,0.0667 -1.05079,0.15014 -1.55118,0.25024 -0.50037,0.10007 -0.96738,0.20013 -1.40103,0.3002 -0.43365,0.10007 -0.83395,0.2335 -1.2009,0.4003 -0.36694,0.1668 -0.76724,0.3169 -1.20089,0.4503 -0.43366,0.13343 -0.83396,0.30023 -1.2009,0.5004 -0.36695,0.20013 -0.70052,0.40028 -1.00073,0.60045 -0.30023,0.20017 -0.5671,0.38364 -0.8006,0.55041 -0.23352,0.16679 -0.48371,0.33357 -0.75058,0.50034 -0.26687,0.1668 -0.51706,0.3336 -0.75058,0.5004 -0.23351,0.1668 -0.46701,0.35027 -0.7005,0.5504 -0.23352,0.20016 -0.46703,0.40033 -0.70053,0.6005 -0.2335,0.20013 -0.45033,0.41693 -0.65049,0.6504 -0.20016,0.23353 -0.38363,0.48375 -0.55041,0.75064 -0.16679,0.26684 -0.35026,0.55036 -0.55043,0.85056 -0.20015,0.30027 -0.4003,0.58384 -0.60045,0.85073 -0.20013,0.26685 -0.3836,0.55037 -0.55041,0.85057 -0.16679,0.30027 -0.3169,0.6005 -0.45032,0.9007 -0.13345,0.3002 -0.28356,0.6171 -0.45035,0.9507 -0.16678,0.33357 -0.28353,0.66717 -0.35025,1.0008 -0.0667,0.33357 -0.15011,0.63377 -0.25018,0.9006 -0.10008,0.2669 -0.18348,0.55047 -0.25019,0.8507 -0.0667,0.3002 -0.10009,0.6171 -0.10009,0.9507 v 1.0508 c 0,0.36693 0.0167,0.73387 0.05,1.1008 0.0333,0.36693 0.10005,0.70052 0.20014,1.00076 0.10008,0.30023 0.20016,0.63381 0.30023,1.00074 0.10009,0.36693 0.20016,0.7172 0.30023,1.0508 0.10008,0.33356 0.20016,0.68381 0.30024,1.05075 0.10007,0.36697 0.21683,0.75059 0.35028,1.15088 0.13342,0.40031 0.25017,0.78394 0.35025,1.15087 0.10007,0.36693 0.21682,0.73388 0.35025,1.10084 0.13342,0.36695 0.28352,0.70053 0.45031,1.00076 0.16681,0.3002 0.33361,0.61709 0.5004,0.95066 0.16678,0.33363 0.3836,0.66722 0.65047,1.00079 0.26687,0.33357 0.51705,0.70048 0.75056,1.10075 0.23352,0.40033 0.48371,0.76728 0.75058,1.10085 0.26687,0.33363 0.55041,0.65055 0.85062,0.95075 0.30023,0.3002 0.63381,0.60043 1.00076,0.9007 0.36695,0.3002 0.73389,0.56703 1.10083,0.8005 0.36695,0.23353 0.76725,0.48375 1.2009,0.75064 0.43365,0.26684 0.85062,0.48368 1.25091,0.65051 0.40031,0.16679 0.78394,0.30021 1.15088,0.40025 0.36695,0.10007 0.73389,0.20013 1.10083,0.3002 0.36695,0.10009 0.75058,0.18351 1.15088,0.25024 0.4003,0.0667 0.81727,0.11673 1.25092,0.15006 0.43365,0.0334 0.86731,0.0501 1.30096,0.0501 h 1.301 c 0.43365,0 0.8673,-0.0334 1.30097,-0.10007 l 1.301,-0.20019 c 0.43365,-0.0667 0.8673,-0.13341 1.30095,-0.20014 0.43365,-0.0667 0.8673,-0.15013 1.30095,-0.2502 0.43367,-0.10004 0.85064,-0.20009 1.25093,-0.30015 0.40031,-0.1001 0.78394,-0.21688 1.15087,-0.35035 0.36695,-0.1334 0.71721,-0.30019 1.0508,-0.50036 0.3336,-0.20016 0.66718,-0.38364 1.00075,-0.55044 0.33358,-0.16677 0.6338,-0.33355 0.90067,-0.50034 0.26687,-0.16677 0.53373,-0.35024 0.8006,-0.55041 0.26687,-0.20017 0.51705,-0.41701 0.75055,-0.65052 0.23352,-0.23349 0.48371,-0.46696 0.75058,-0.70043 0.26686,-0.23353 0.50037,-0.48373 0.70053,-0.7506 0.20015,-0.2669 0.4003,-0.55045 0.60046,-0.85066 0.20013,-0.30023 0.38361,-0.58377 0.55042,-0.85064 0.16679,-0.26687 0.33357,-0.53372 0.50036,-0.80055 0.16679,-0.2669 0.31689,-0.56713 0.45032,-0.90069 0.13344,-0.33357 0.2502,-0.65049 0.35028,-0.95076 0.10008,-0.3002 0.20016,-0.63377 0.30023,-1.0007 0.10006,-0.36696 0.18346,-0.71723 0.25019,-1.0508 0.0667,-0.33358 0.13342,-0.65048 0.20013,-0.9507 0.0667,-0.30024 0.11678,-0.61715 0.15015,-0.95073 0.0333,-0.33358 0.0667,-0.66717 0.10003,-1.00077 0.0333,-0.3336 0.0333,-0.71723 0,-1.1509 -0.0333,-0.43363 -0.05,-0.83393 -0.05,-1.2009 0,-0.36693 -0.0167,-0.73387 -0.05,-1.1008 -0.0333,-0.36693 -0.0834,-0.7172 -0.15015,-1.0508 -0.0667,-0.33357 -0.1501,-0.68382 -0.25017,-1.05076 -0.10009,-0.36696 -0.21685,-0.73391 -0.3503,-1.10084 -0.13342,-0.36693 -0.30021,-0.75053 -0.50036,-1.1508 -0.20013,-0.40033 -0.40028,-0.76728 -0.60044,-1.10084 -0.20015,-0.33362 -0.43366,-0.66722 -0.70053,-1.00079 -0.26686,-0.33358 -0.56708,-0.7005 -0.90067,-1.10077 -0.33357,-0.40031 -0.68383,-0.78395 -1.05077,-1.1509 -0.36695,-0.36693 -0.75057,-0.73387 -1.15085,-1.1008 -0.40031,-0.36693 -0.8173,-0.7172 -1.25098,-1.0508 -0.43365,-0.33357 -0.86731,-0.68384 -1.30096,-1.0508 -0.43365,-0.36693 -0.85063,-0.71719 -1.25092,-1.05076 -0.40031,-0.33363 -0.81729,-0.63387 -1.25094,-0.90074 -0.43365,-0.26687 -0.86732,-0.53372 -1.301,-0.80055 -0.43365,-0.2669 -0.90067,-0.50042 -1.40106,-0.70055 -0.50037,-0.20013 -1.0341,-0.35023 -1.6012,-0.4503 -0.56708,-0.10007 -3.20522,-0.64592 -3.85693,-0.55174"
           fill="none"
           stroke="#999999"
           stroke-width="4.96372"
           stroke-linecap="round"
           id="path104"
           style="display:inline;fill:#ffffff;fill-opacity:1;stroke:#000000;stroke-opacity:1"
           sodipodi:nodetypes="csssssssssssssssssssssssssssssssssssssssssssssssssssssssssssssssssssssssssssssssssssssssssc"
           inkscape:label="hand" />
      </g>
      <path
         style="display:inline;fill:none;fill-opacity:0;stroke:#00000f;stroke-width:6.481;stroke-linecap:round;stroke-linejoin:round;stroke-miterlimit:4;stroke-dasharray:none;stroke-opacity:1;paint-order:markers fill stroke"
         d="m 398.03388,188.38318 c -2.68143,42.6592 -7.33457,61.95959 -23.37025,98.51921"
         id="path2539"
         inkscape:label="foot-1"
         sodipodi:nodetypes="cc" />
    </g>
    <g
       inkscape:groupmode="layer"
       id="layer10"
       inkscape:label="ship-body"
       style="display:inline">
      <path
         d="m 363.63591,437.35439 c 4.64188,-8.62259 7.66391,-17.477 13.88594,-26.11501 16.46069,-22.85228 52.19448,-66.65522 55.04115,-68.18189 1.93637,-1.13349 -9.34042,-3.66202 -14.6457,-5.76995 -7.15334,-1.78982 -17.2522,-5.12538 -30.29659,-10.0067 -13.04436,-4.8813 -25.87834,-10.16938 -38.50192,-15.86425 -12.62355,-5.69486 -24.61595,-11.22701 -35.9772,-16.59645 -11.36122,-5.36943 -20.8289,-10.25076 -28.40305,-14.64393 -7.57415,-4.39317 -7.68712,-4.73033 -11.49478,-3.93822 -8.84881,1.84084 -40.68267,21.83635 -49.0984,25.90412 -8.41572,4.06775 -17.04183,7.9728 -25.87834,11.71514 -8.8365,3.74234 -17.46261,7.32196 -25.87833,10.73888 -8.41573,3.41692 -18.13322,7.37979 -29.66541,11.47108 0,0 -19.35631,5.12398 -22.16027,6.99028 -3.80708,2.53398 1.96254,14.73155 1.96254,14.73155 0.22061,0.5074 1.47276,2.11521 3.1559,4.88131 1.68314,2.76609 3.99747,6.91522 6.94296,12.44733 2.94549,5.53215 6.94296,11.87786 11.9924,19.03712 5.04944,7.15924 10.94044,14.88798 17.67301,23.18622 6.73258,8.29823 14.72752,16.59645 23.9848,24.89469 9.25729,8.29822 15.98988,14.23716 20.19773,17.81677 0,0 5.29836,5.97435 8.86054,5.97435 2.00851,0 31.85444,-13.50053 64.8529,-13.40021 29.23919,0.0889 61.93373,14.02917 65.43966,10.59527 9.10764,-8.92053 13.46203,-17.41852 18.01046,-25.8675 z"
         fill="none"
         stroke="#000000"
         stroke-width="28.8"
         stroke-linecap="round"
         id="path6"
         sodipodi:nodetypes="ssccsssssssssssssssssssss"
         style="display:inline;fill:#99eeff;fill-opacity:1;stroke:#000000;stroke-width:4;stroke-dasharray:none;stroke-opacity:1"
         inkscape:label="ship-body" />
      <path
         d="m 280.42361,341.48791 0.46444,-1.62318 c 0.30962,-1.08209 0.61924,-2.70524 0.92887,-4.86945 0.30962,-2.16421 0.61925,-4.63759 0.92887,-7.42016 0.30962,-2.78254 0.46444,-5.87427 0.46444,-9.27516 v -9.97084 c 0,-3.2463 -0.30963,-6.41532 -0.92887,-9.50707 -0.61926,-3.09171 -1.39331,-6.41533 -2.32218,-9.9708 -0.92887,-3.55549 -1.70293,-6.18345 -2.32218,-7.8839 l -0.92887,-2.55067"
         fill="none"
         stroke="#000000"
         stroke-width="28.8"
         stroke-linecap="round"
         id="path165"
         style="display:inline;stroke:#000000;stroke-width:4.49791;stroke-dasharray:none;stroke-opacity:1"
         sodipodi:nodetypes="cssssssssc"
         inkscape:label="bow" />
      <path
         id="path26"
         style="color:#000000;display:inline;fill:none;fill-opacity:0.266667;stroke:#000000;stroke-width:1;stroke-linecap:round;stroke-dasharray:none;stroke-opacity:0.466667"
         d="m 135.17095,346.69288 c -0.79301,0.25976 -0.94627,0.34977 -2.30221,1.28775 -0.9733,0.67322 -1.21672,2.02358 -0.54373,3.0162 0.67308,0.99275 2.00791,1.25174 2.98134,0.57844 0.1609,-0.11132 0.26345,-0.18586 0.3768,-0.26735 1.17271,2.6992 2.70292,5.05292 3.72317,7.20562 1.0081,2.12693 1.51534,3.87213 1.14884,5.71136 -0.80873,0.55837 -1.15224,1.63145 -0.76697,2.59586 0.44553,1.11522 1.69546,1.6614 2.79183,1.21993 0.27282,-0.10916 0.31814,-0.13109 0.42739,-0.17871 0.36089,-0.0827 0.60512,-0.2283 0.70348,-0.28352 0.13676,-0.0769 0.24133,-0.13928 0.47741,-0.26634 0.72184,-0.38763 1.43472,-0.78314 2.12617,-1.23295 0.67147,-0.43686 1.29617,-0.89526 1.8726,-1.37814 0.5569,-0.46653 1.0414,-0.91654 1.46091,-1.37021 0.40438,-0.43733 0.76653,-0.88812 1.08213,-1.35759 l -6e-5,-2e-4 c 0.27289,-0.40597 0.51321,-0.79196 0.72213,-1.16673 0.23065,-0.41376 0.42307,-0.8376 0.56528,-1.28408 0.13348,-0.41897 0.22557,-0.85171 0.28349,-1.29483 0.0617,-0.47177 0.0764,-0.95015 0.0454,-1.42686 -0.0231,-0.35437 -0.0509,-0.72152 -0.0836,-1.10153 -0.0375,-0.43665 -0.0969,-0.87819 -0.17669,-1.32463 -0.0784,-0.43816 -0.1726,-0.87178 -0.28274,-1.30064 -0.12181,-0.47421 -0.2724,-0.92598 -0.46298,-1.35626 l -8e-5,-2.1e-4 c -0.18302,-0.41407 -0.40251,-0.81635 -0.65358,-1.20935 -0.25859,-0.40509 -0.5499,-0.79192 -0.87019,-1.15985 -0.31469,-0.36148 -0.64532,-0.69422 -0.99529,-0.99515 l 1.9e-4,-8e-5 c -0.36607,-0.31474 -0.76198,-0.59424 -1.18091,-0.83673 -0.38028,-0.22009 -0.77265,-0.41737 -1.17538,-0.59102 -0.36634,-0.15794 -0.73063,-0.3015 -1.09329,-0.4303 -0.39907,-0.1417 -0.80767,-0.25901 -1.22389,-0.35201 -0.36481,-0.0815 -0.74136,-0.15708 -1.12995,-0.22712 -0.44242,-0.0797 -0.91053,-0.13808 -1.41049,-0.1796 -0.5061,-0.042 -1.01934,-0.0623 -1.53932,-0.0616 -0.42192,6e-4 -0.85202,0.0305 -1.29377,0.0859 -0.19236,0.0241 -0.38691,0.0532 -0.58401,0.0867 -0.66278,0.11307 -1.3124,0.27751 -1.94481,0.49275 -0.4749,0.1617 -0.81031,0.26711 -1.07493,0.35285 z m 4.63656,3.33582 c 0.10691,-0.006 0.21086,-0.011 0.30502,-0.0111 0.40567,-6e-4 0.80002,0.0153 1.18332,0.0472 0.38943,0.0323 0.72792,0.0761 1.00883,0.12673 0.33477,0.0603 0.65387,0.1246 0.95703,0.19231 0.25179,0.0563 0.49303,0.1257 0.72573,0.20833 0.26906,0.0955 0.54596,0.20463 0.83044,0.32727 0.2481,0.10696 0.48852,0.22785 0.7228,0.36345 0.19566,0.11324 0.36866,0.23634 0.52554,0.37123 0.17296,0.14875 0.35676,0.3312 0.54786,0.55074 0.18556,0.21305 0.3446,0.42596 0.48102,0.63959 0.14404,0.22558 0.25497,0.43289 0.33712,0.61887 0.0752,0.16957 0.15349,0.39305 0.22413,0.66921 0.0827,0.32144 0.15361,0.64751 0.21273,0.97848 0.0576,0.32274 0.0986,0.6316 0.12393,0.92672 0.0302,0.35172 0.0559,0.68823 0.0768,1.00929 0.0129,0.19875 0.007,0.38648 -0.0177,0.57158 -0.0281,0.21379 -0.0685,0.39109 -0.11442,0.53526 -0.0371,0.11682 -0.10692,0.28408 -0.22171,0.48999 -0.13651,0.24491 -0.31521,0.53508 -0.5347,0.86161 l -7e-5,-2.1e-4 c -0.1768,0.26297 -0.39971,0.54489 -0.67286,0.84027 -0.258,0.27899 -0.61683,0.61806 -1.06948,0.99724 l -1.9e-4,5e-5 c -0.18064,0.15135 -0.37633,0.30151 -0.57578,0.45142 -0.21798,-1.83245 -0.85155,-3.56023 -1.59679,-5.13248 -1.117,-2.35702 -2.47922,-4.53057 -3.45885,-6.63301 z"
         inkscape:label="easter-egg" />
    </g>
  </g>
  <g
     inkscape:groupmode="layer"
     id="layer3"
     inkscape:label="water"
     style="display:inline"
     transform="translate(-3.3002929,0.4210205)">
    <path
       style="color:#000000;display:inline;fill:#00ffff;stroke:#000000;stroke-width:4;stroke-linecap:round;stroke-dasharray:none;stroke-opacity:1"
       d="m 304.40535,506.50842 c -3.03254,0.12722 -6.04139,0.58625 -9.01562,1.47852 -4.89397,1.46819 -9.54376,3.75032 -14.0918,6.64453 -3.66673,2.33333 -7.33327,4.66659 -11,7 -4.1669,2.65167 -7.91396,5.39176 -11.25195,8.3125 -2.09131,1.82985 -3.674,2.81551 -3.95703,2.95703 -4.00327,2.00177 -7.88288,5.26199 -10.40821,9.47071 -0.85473,1.42455 -1.90384,3.07548 -3.13476,4.92187 -1.29956,1.94927 -1.56669,3.15506 -3.53006,4.46377 -1.07639,0.71748 -1.46772,0.70172 -2.70041,-0.0907 -4.78327,-3.07496 -10.20567,-6.46217 -16.2793,-10.17383 -7.06765,-4.31912 -14.81378,-7.78352 -23.14258,-10.43359 -7.83964,-2.49444 -15.56313,-4.47455 -23.17187,-5.92383 -8.43416,-1.60651 -16.82495,-1.85936 -24.93946,-0.57813 -7.666,1.21042 -14.96472,3.47944 -21.69335,6.84375 -6.19198,3.09599 -12.02836,6.79126 -17.45704,11.05664 -5.09528,4.00345 -9.860881,8.21637 -14.285141,12.64063 -4.14142,4.14142 -7.65146,7.81833 -10.58203,11.11523 -1.41031,1.5866 -2.5452,2.90008 -3.50586,4.07422 -0.96066,1.17414 -1.44203,1.21413 -3.11133,4.55274 -0.166666,0.33333 -0.333335,0.66667 -0.5,1 -3.55689,7.11387 -0.672769,15.76403 6.44141,19.32031 7.112951,3.55567 15.76158,0.67294 17.879951,-3.31148 2.11837,-3.98443 3.06486,-5.08762 4.32122,-6.50102 2.40274,-2.7031 5.56133,-6.02619 9.41991,-9.88477 3.57573,-3.57573 7.47681,-7.02949 11.71484,-10.35937 3.90466,-3.06794 8.06829,-5.70602 12.54297,-7.94336 3.93802,-1.96901 8.30599,-3.36668 13.30664,-4.15625 4.55215,-0.71876 9.49277,-0.63828 15.0586,0.42187 6.39124,1.21738 13.00111,2.90395 19.82812,5.07617 6.33785,2.01659 11.92508,4.55025 16.85742,7.56446 5.92637,3.62166 11.17261,6.90114 15.72266,9.82617 4.69581,3.01874 8.39616,5.37382 11.1543,7.09766 2.75813,1.72383 3.80939,2.47794 6.19336,3.66992 1.6213,0.81065 3.86445,1.76953 7.31445,1.76953 3.45,0 8.09439,-1.75455 10.80664,-4.4668 4.4093,-4.4093 3.19225,-4.50679 3.72656,-5.70898 0.53431,-1.2022 1.0165,-2.43072 1.57422,-3.91797 0.93074,-2.48196 1.85171,-4.77768 2.75391,-6.88281 0.67397,-1.57266 1.42294,-2.9538 2.24414,-4.18555 1.19861,-1.79791 1.72946,-3.89953 3.22851,-5.07422 2.99521,-2.34711 6.27134,-3.94941 9.27344,-6.57617 1.99534,-1.74592 4.58163,-3.67446 7.74805,-5.68945 3.6666,-2.33333 7.3334,-4.66675 11,-7 2.78528,-1.77246 5.13356,-2.82367 6.90625,-3.35547 0.7182,-0.21546 2.63255,-0.49334 5.82617,-0.0371 3.66888,0.52415 7.38571,1.4468 11.19336,2.80664 4.64621,1.65936 8.78814,3.14934 12.42187,4.4707 4.98375,1.81227 10.16855,2.86719 15.42188,2.86719 4.29333,0 8.24685,-0.40298 12.55273,-1.73828 2.61692,-0.81154 5.32461,-2.25558 6.94727,-2.26172 0.96192,-0.004 3.28612,0.19708 6.42383,0.76758 3.55332,0.64606 7.8123,1.46519 12.75195,2.45312 5.48273,1.09655 10.70977,1.85102 15.71875,2.23633 5.27676,0.40591 0.001,0 0.002,0 5.39075,0 10.61524,0.2313 15.67969,-0.68945 3.81779,-0.69415 7.32638,-1.39371 10.54688,-2.10938 2.17311,-0.48291 5.0671,-0.91493 8.57226,-1.20703 2.35051,-0.19588 5.26516,-0.0262 8.78711,0.72852 4.09429,0.87734 8.41826,2.06715 12.96289,3.58203 5.63757,1.87923 11.07201,3.25602 16.36524,4.07031 5.43024,0.83542 10.32794,1.27516 16.14453,-0.38672 3.29136,-0.94033 6.45469,-2.19891 9.45312,-3.99805 0.69808,-0.41886 1.55544,-0.82253 2.64453,-1.18554 0.17853,-0.0595 2.19772,-0.82031 5.25,-0.82031 0,0 0.001,0 0.002,0 1.6358,0 5.78226,-0.012 11.44921,0.88281 6.57677,1.03844 13.1565,1.90479 19.73829,2.59765 6.64721,0.69971 12.20781,1.07813 17.00781,1.07813 4.79999,0 9.03179,-0.29089 13.45508,-1.55469 2.4203,-0.69156 4.14282,-1.1987 5.59765,-1.68359 0.50001,-0.16665 1,-0.33334 1.5,-0.5 7.54488,-2.5149 11.62243,-10.67001 9.10742,-18.21485 -2.5149,-7.54487 -10.67,-11.62242 -18.21484,-9.10742 -0.5,0.16667 -0.99998,0.33338 -1.5,0.5 -0.54581,0.18188 -2.1569,0.67286 -4.40234,1.31446 -0.24338,0.0695 -2.34297,0.44531 -5.54297,0.44531 -3.2,0 -7.97274,-0.2863 -13.99219,-0.91992 -6.08487,-0.64055 -12.17183,-1.44079 -18.26172,-2.40235 -6.99969,-1.10521 -12.84653,-1.63581 -18.55078,-1.11719 -4.29358,0.39033 -7.92853,0.90587 -11.75,2.17969 -2.91028,0.97017 -5.71878,2.2316 -8.35351,3.8125 -0.29176,0.17507 -1.12013,0.60492 -2.21875,0.87305 -0.17635,0.043 -1.76901,0.11366 -4.1836,-0.25781 -3.37343,-0.51896 -7.27429,-1.47356 -11.63672,-2.92774 -5.45536,-1.81845 -10.79612,-3.29727 -16.03515,-4.41992 -5.81142,-1.2453 -11.56345,-1.74032 -17.21289,-1.26953 -4.49484,0.37457 -8.60085,0.94255 -12.42774,1.79297 -2.77949,0.61766 -5.93758,1.24948 -9.45312,1.88867 -2.26892,0.4125 -5.02854,0.56373 -8.32032,0.31055 -3.65767,-0.28136 -7.76207,-0.85827 -12.27929,-1.76172 -5.06034,-1.01207 -9.46804,-1.86156 -13.24805,-2.54883 -4.19558,-0.76284 -7.8714,-1.23242 -11.57617,-1.23242 -3.70476,0 -7.55727,0.43629 -11.34766,2.03125 -2.94047,1.23732 -5.6235,1.96012 -8.15234,1.96875 -1.41332,0.005 -3.22854,-0.27842 -5.57813,-1.13281 -3.69959,-1.34531 -7.89101,-2.85338 -12.57812,-4.52735 -5.52567,-1.97341 -11.1422,-3.3841 -16.80664,-4.19336 -3.06985,-0.43855 -6.12761,-0.64479 -9.16016,-0.51758 -3e-5,0 -6e-5,-3e-5 -9e-5,-3e-5 z"
       id="path14"
       sodipodi:nodetypes="ssssssssssssssssssssssssssssssssssssssssssssssssssssssssssssssssssssssssssssssssssssssssssssssssssss"
       inkscape:label="wave-lower" />
    <path
       style="color:#000000;display:inline;fill:#00ffff;stroke:#000000;stroke-width:4;stroke-linecap:round;stroke-dasharray:none;stroke-opacity:1"
       d="m 271.60652,441.25842 c -3.97877,-0.0905 -7.75217,-0.046 -11.33593,0.14258 -7.20726,0.37933 -13.22082,1.16216 -19.08985,3.50977 -4.79328,1.91731 -9.73988,4.19408 -13.5,10.46094 -2.45281,4.08792 -3.42574,7.84545 -4.27344,12.08398 -0.83333,4.16667 -1.66667,8.33333 -2.5,12.5 -0.81896,4.09484 -2.05735,8.24496 -3.75,12.47656 -1.14291,2.8573 -1.90166,4.55331 -2.61914,4.56055 -2.75993,0.0279 -7.55569,-1.73923 -13.95703,-3.87305 -7.19515,-2.39838 -15.34102,-4.94371 -24.46289,-7.64648 -9.87633,-2.92632 -20.09258,-4.92789 -30.60742,-6.01563 -10.59347,-1.09587 -20.81757,-1.11495 -30.63281,0.0176 -10.03799,1.15823 -19.462931,3.71989 -28.041011,7.80469 -7.66487,3.64994 -14.98574,7.85743 -21.93945,12.61523 -6.63234,4.53788 -12.323561,8.80947 -17.17188,12.89258 -3.763518,3.16952 -6.069875,5.10128 -8.18554,6.51172 -6.617035,4.41136 -8.405123,13.35147 -3.99414,19.96875 4.411569,6.61816 13.352786,8.40608 19.9707,3.99414 0.5,-0.33333 1,-0.66667 1.5,-1 3.15053,-2.10035 4.89072,-3.74678 9.3125,-7.48828 3.82787,-3.23901 8.79576,-6.98067 14.83008,-11.10938 5.71295,-3.90885 11.72543,-7.36609 18.06055,-10.38281 5.421901,-2.58186 11.663651,-4.35354 18.958971,-5.19531 7.51807,-0.86747 15.62735,-0.88654 24.36719,0.0176 8.81848,0.91225 17.26697,2.57541 25.39062,4.98242 8.87812,2.63055 16.73228,5.08719 23.53711,7.35547 7.39034,2.46349 13.34374,4.15239 18.6875,5.04297 7.26309,1.21051 15.73422,-0.69237 21.70703,-5.33789 5.71051,-4.44151 9.3941,-10.43153 12.0293,-17.01954 2.30735,-5.76838 4.07092,-11.61829 5.25195,-17.52343 0.83333,-4.16667 1.66668,-8.33333 2.5,-12.5 0.24772,-1.23862 -0.0559,-1.1507 0.3711,-1.48633 0.7588,-0.59641 4.42711,-1.17616 9.76367,-1.45703 5.49912,-0.28943 12.24161,-0.15372 20.0957,0.47461 7.96823,0.6375 16.12134,1.59428 24.45899,2.87695 8.46098,1.30169 16.74914,2.76545 24.86523,4.38867 8.33334,1.66667 16.6667,3.33334 25,5 8.40578,1.6812 16.32022,3.1964 23.74805,4.54688 7.71113,1.40202 15.28142,2.46039 22.71093,3.16797 7.4295,0.70757 14.71856,1.06445 21.86524,1.06445 6.90666,0 13.5039,-0.17177 19.79883,-0.52149 6,-0.33333 12,-0.66667 18,-1 5.7493,-0.3194 11.31686,-0.47851 16.70117,-0.47851 5.5,0 11,0 16.5,0 6.23333,0 12.46643,-0.58587 18.6543,-1.74609 6.75756,-1.26705 13.37851,-3.57012 19.78515,-6.77344 5.86999,-2.93499 10.73458,-5.7736 14.90039,-9.01367 1.5,-1.16667 4.5,-3.5 4.5,-3.5 6.27755,-4.88254 7.40978,-13.9294 2.52735,-20.20704 -4.88234,-6.27754 -13.92857,-7.40653 -20.20704,-2.52539 -1.50065,1.16667 -3.0013,2.33333 -4.50195,3.5 -1.83448,1.4262 -5.30098,3.588 -10.09765,5.98633 -4.26002,2.13001 -8.30576,3.49361 -12.21485,4.22656 -4.47878,0.83978 -8.91237,1.25196 -13.3457,1.25196 -5.5,0 -11,0 -16.5,0 -5.94901,0 -12.04815,0.17618 -18.29883,0.52344 -6,0.33333 -12,0.66667 -18,1 -5.70506,0.31694 -11.77451,0.47656 -18.20117,0.47656 -6.18668,0 -12.56431,-0.30784 -19.13477,-0.9336 -6.57047,-0.62576 -13.33354,-1.56934 -20.28906,-2.83398 -7.23882,-1.31611 -14.99108,-2.79896 -23.25195,-4.45117 -8.33331,-1.66667 -16.66665,-3.33334 -25,-5 -8.55056,-1.71011 -17.26244,-3.24831 -26.13477,-4.61328 -8.99571,-1.38391 -17.84263,-2.42518 -26.54101,-3.1211 -4.40628,-0.3525 -8.59154,-0.57745 -12.57032,-0.66797 -10e-6,0 1e-5,-4e-5 0,-4e-5 z"
       id="path12"
       inkscape:label="wave-upper"
       sodipodi:nodetypes="ssssssssssssssssssssssssssssssssssssssssssssssssssssssssssssssssss" />
  </g>
</svg>
